# Blender 3.6.4
# www.blender.org
o grabber_base.001
v 11.400001 10.000000 -5.749999
v 11.400000 0.000000 -5.750000
v -11.399999 10.000002 -5.749998
v -11.400000 0.000002 -5.750000
v 11.400001 9.999998 5.750001
v 11.400000 -0.000002 5.750000
v -11.399999 10.000000 5.750002
v -11.400001 0.000002 5.750002
v -9.900004 4.699919 4.199983
v -9.900005 13.099918 4.199985
v -6.700003 4.699920 4.199983
v -6.700005 13.099919 4.199985
v -9.900003 4.699917 15.699984
v -9.900004 13.099916 15.699985
v -6.700003 4.699917 15.699984
v -6.700005 13.099916 15.699986
v 9.900019 13.099915 4.199976
v 9.900018 4.699914 4.199975
v 6.700018 13.099916 4.199976
v 6.700017 4.699914 4.199975
v 9.900020 13.099913 15.699978
v 9.900019 4.699912 15.699977
v 6.700018 13.099914 15.699978
v 6.700018 4.699914 15.699978
v -9.900006 13.899940 -2.295379
v -9.900008 22.299940 -2.295378
v -6.700006 13.899940 -2.295379
v -6.700007 22.299940 -2.295378
v -9.899998 13.899936 23.699982
v -9.900000 22.299934 23.699984
v -6.699997 13.899935 23.699982
v -6.700000 22.299934 23.699986
v 18.429586 22.299908 -6.334213
v 11.267992 4.699889 -6.334212
v -18.429583 22.299910 -6.334211
v -12.995638 4.699893 -6.334212
v 18.429586 22.299906 6.334219
v 11.267992 4.699887 6.334219
v -18.429583 22.299908 6.334221
v -12.995641 4.699893 6.334220
v 9.900016 22.299936 -2.295384
v 9.900015 13.899936 -2.295386
v 6.700016 22.299936 -2.295384
v 6.700015 13.899936 -2.295385
v 9.900023 22.299931 23.699978
v 9.900023 13.899931 23.699976
v 6.700023 22.299932 23.699978
v 6.700023 13.899933 23.699978
v 22.800007 22.299915 11.499991
v 22.800007 32.299992 11.499993
v -22.799990 22.299919 11.500018
v -22.799990 32.299995 11.500020
v 22.799994 22.299919 -11.500010
v 22.799994 32.299995 -11.500009
v -22.800003 22.299923 -11.499984
v -22.800005 32.299995 -11.499985
vn -0.0000 -0.0000 -1.0000
vn -1.0000 -0.0000 -0.0000
vn -0.0000 -0.0000 1.0000
vn 1.0000 -0.0000 -0.0000
vn -0.0000 1.0000 -0.0000
vn -0.0000 -1.0000 -0.0000
vn -0.9555 -0.2950 -0.0000
vn 0.9263 -0.3769 -0.0000
vt 0.375000 0.000000
vt 0.625000 0.000000
vt 0.625000 0.250000
vt 0.375000 0.250000
vt 0.625000 0.500000
vt 0.375000 0.500000
vt 0.625000 0.750000
vt 0.375000 0.750000
vt 0.625000 1.000000
vt 0.375000 1.000000
vt 0.125000 0.500000
vt 0.125000 0.750000
vt 0.875000 0.500000
vt 0.875000 0.750000
s 0
f 1/1/1 2/2/1 4/3/1 3/4/1
f 3/4/2 4/3/2 8/5/2 7/6/2
f 7/6/3 8/5/3 6/7/3 5/8/3
f 5/8/4 6/7/4 2/9/4 1/10/4
f 3/11/5 7/6/5 5/8/5 1/12/5
f 8/5/6 4/13/6 2/14/6 6/7/6
f 9/1/1 10/2/1 12/3/1 11/4/1
f 11/4/4 12/3/4 16/5/4 15/6/4
f 15/6/3 16/5/3 14/7/3 13/8/3
f 13/8/2 14/7/2 10/9/2 9/10/2
f 11/11/6 15/6/6 13/8/6 9/12/6
f 16/5/5 12/13/5 10/14/5 14/7/5
f 17/1/1 18/2/1 20/3/1 19/4/1
f 19/4/2 20/3/2 24/5/2 23/6/2
f 23/6/3 24/5/3 22/7/3 21/8/3
f 21/8/4 22/7/4 18/9/4 17/10/4
f 19/11/5 23/6/5 21/8/5 17/12/5
f 24/5/6 20/13/6 18/14/6 22/7/6
f 25/1/1 26/2/1 28/3/1 27/4/1
f 27/4/4 28/3/4 32/5/4 31/6/4
f 31/6/3 32/5/3 30/7/3 29/8/3
f 29/8/2 30/7/2 26/9/2 25/10/2
f 27/11/6 31/6/6 29/8/6 25/12/6
f 32/5/5 28/13/5 26/14/5 30/7/5
f 33/1/1 34/2/1 36/3/1 35/4/1
f 35/4/7 36/3/7 40/5/7 39/6/7
f 39/6/3 40/5/3 38/7/3 37/8/3
f 37/8/8 38/7/8 34/9/8 33/10/8
f 35/11/5 39/6/5 37/8/5 33/12/5
f 40/5/6 36/13/6 34/14/6 38/7/6
f 41/1/1 42/2/1 44/3/1 43/4/1
f 43/4/2 44/3/2 48/5/2 47/6/2
f 47/6/3 48/5/3 46/7/3 45/8/3
f 45/8/4 46/7/4 42/9/4 41/10/4
f 43/11/5 47/6/5 45/8/5 41/12/5
f 48/5/6 44/13/6 42/14/6 46/7/6
f 49/1/3 50/2/3 52/3/3 51/4/3
f 51/4/2 52/3/2 56/5/2 55/6/2
f 55/6/1 56/5/1 54/7/1 53/8/1
f 53/8/4 54/7/4 50/9/4 49/10/4
f 51/11/6 55/6/6 53/8/6 49/12/6
f 56/5/5 52/13/5 50/14/5 54/7/5
