# Blender 3.6.4
# www.blender.org
o element_2_3.001
v -17.500000 -0.000009 -12.750000
v 17.500000 0.000008 -12.750000
v -17.500000 -0.000008 12.750000
v 17.500000 0.000009 12.750000
v -17.500002 3.000434 -12.750000
v 17.499998 3.000451 -12.750000
v -17.500002 3.000434 12.750000
v 17.499998 3.000451 12.750000
v 20.500000 0.000010 -12.750000
v 20.500000 0.000010 12.750000
v 20.499998 3.000010 12.750000
v 20.499998 3.000010 -12.750000
v -20.500000 -0.000010 12.750000
v -20.500000 -0.000010 -12.750000
v -20.500002 2.999990 12.750000
v -20.500002 2.999990 -12.750000
v -17.499996 -7.500022 12.750000
v -17.499996 -7.500022 -12.750000
v -20.499996 -7.500023 12.750000
v -20.499996 -7.500023 -12.750000
v 20.500004 -7.500022 12.750000
v 20.500004 -7.500022 -12.750000
v 17.500004 -7.500024 12.750000
v 17.500004 -7.500024 -12.750000
v 17.500008 -14.282016 -5.500000
v 20.500008 -14.282014 -5.500000
v 17.500008 -14.282016 5.500000
v 20.500008 -14.282014 5.500000
v -17.499992 -14.282012 5.500000
v -17.499992 -14.282012 -5.500000
v -20.499992 -14.282014 5.500000
v -20.499992 -14.282014 -5.500000
v -5.784531 138.285217 4.250015
v -5.784532 138.285217 -4.249985
v -5.784546 153.000778 4.250017
v -20.500109 153.000748 4.250017
v -5.784546 153.000778 -4.249983
v -20.500109 153.000748 -4.249983
v 5.784341 138.285202 -4.249973
v 5.784346 138.285202 4.250027
v 5.784326 153.000763 -4.249971
v 20.499889 153.000778 -4.249981
v 5.784332 153.000763 4.250029
v 20.499895 153.000778 4.250019
v -0.000032 3.000397 -9.999831
v -0.000106 153.000320 -9.999982
v 1.564313 3.000397 -9.876714
v 1.564239 153.000320 -9.876865
v 3.090138 3.000398 -9.510395
v 3.090064 153.000320 -9.510546
v 4.539873 3.000414 -8.909895
v 4.539799 153.000320 -8.910046
v 5.877820 3.000415 -8.090000
v 5.877746 153.000320 -8.090151
v 7.071036 3.000415 -7.070898
v 7.070961 153.000320 -7.071049
v 8.090137 3.000416 -5.877681
v 8.090063 153.000320 -5.877833
v 8.910032 3.000416 -4.539735
v 8.909958 153.000320 -4.539886
v 9.510530 3.000417 -3.089999
v 9.510458 153.000320 -3.090151
v 9.876848 3.000417 -1.564174
v 9.876776 153.000320 -1.564325
v 9.999965 3.000417 0.000170
v 9.999892 153.000336 0.000019
v 9.876848 3.000417 1.564515
v 9.876776 153.000336 1.564364
v 9.510530 3.000417 3.090340
v 9.510458 153.000336 3.090189
v 8.910029 3.000416 4.540076
v 8.909956 153.000336 4.539924
v 8.090136 3.000416 5.878023
v 8.090062 153.000336 5.877871
v 7.071033 3.000415 7.071237
v 7.070959 153.000336 7.071086
v 5.877818 3.000415 8.090340
v 5.877743 153.000336 8.090188
v 4.539871 3.000414 8.910235
v 4.539797 153.000336 8.910083
v 3.090136 3.000413 9.510735
v 3.090061 153.000336 9.510584
v 1.564310 3.000428 9.877052
v 1.564236 153.000336 9.876901
v -0.000034 3.000427 10.000169
v -0.000109 153.000336 10.000017
v -1.564379 3.000427 9.877052
v -1.564453 153.000336 9.876901
v -3.090204 3.000426 9.510734
v -3.090279 153.000336 9.510582
v -4.539939 3.000410 8.910233
v -4.540014 153.000336 8.910082
v -5.877886 3.000409 8.090338
v -5.877961 153.000336 8.090187
v -7.071101 3.000409 7.071236
v -7.071176 153.000336 7.071084
v -8.090203 3.000408 5.878020
v -8.090278 153.000336 5.877869
v -8.910100 3.000408 4.540073
v -8.910172 153.000336 4.539922
v -9.510599 3.000407 3.090338
v -9.510672 153.000336 3.090186
v -9.876918 3.000407 1.564513
v -9.876990 153.000336 1.564361
v -10.000033 3.000407 0.000168
v -10.000106 153.000336 0.000017
v -9.876918 3.000407 -1.564177
v -9.876990 153.000336 -1.564328
v -9.510599 3.000407 -3.090002
v -9.510672 153.000336 -3.090153
v -8.910098 3.000408 -4.539737
v -8.910171 153.000320 -4.539888
v -8.090202 3.000408 -5.877684
v -8.090277 153.000320 -5.877835
v -7.071099 3.000409 -7.070899
v -7.071174 153.000320 -7.071050
v -5.877884 3.000409 -8.090001
v -5.877959 153.000320 -8.090153
v -4.539937 3.000410 -8.909896
v -4.540011 153.000320 -8.910048
v -3.090202 3.000411 -9.510396
v -3.090276 153.000320 -9.510548
v -1.564377 3.000396 -9.876714
v -1.564451 153.000320 -9.876865
v -5.784443 17.715555 -4.249990
v -5.784448 17.715551 4.250010
v -5.784438 2.999989 -4.249992
v -20.500002 2.999984 -4.250000
v -5.784442 2.999988 4.250008
v -20.500006 2.999982 4.250000
v 5.784429 17.715559 4.250004
v 5.784429 17.715559 -4.249996
v 5.784435 2.999997 4.250002
v 20.499998 3.000002 4.250002
v 5.784435 2.999998 -4.249998
v 20.499998 3.000004 -4.249998
v 20.499882 170.283005 -5.499957
v 20.499880 170.282990 5.500043
v 17.499882 170.283005 -5.499957
v 17.499880 170.282990 5.500043
v -20.500118 170.283005 5.500040
v -17.500120 170.283005 5.500040
v -20.500116 170.283005 -5.499960
v -17.500118 170.283005 -5.499960
v -17.500114 163.501022 -12.749963
v -17.500116 163.501007 12.750037
v -20.500113 163.501022 -12.749963
v -20.500114 163.501007 12.750037
v 20.499886 163.501007 -12.749960
v 20.499884 163.501007 12.750040
v 17.499886 163.501007 -12.749960
v 17.499884 163.501007 12.750040
v 20.499895 153.000992 -12.749964
v 20.499891 153.000992 12.750035
v 20.499893 156.000992 -12.749963
v 20.499887 156.000992 12.750037
v -20.500105 153.000961 -12.749967
v -20.500107 153.000961 12.750032
v -20.500111 156.000961 12.750034
v -20.500107 156.000961 -12.749966
v -17.500109 153.000519 12.750032
v 17.499891 153.000549 12.750035
v -17.500109 153.000519 -12.749967
v 17.499895 153.000549 -12.749964
v -17.500113 156.000961 12.750034
v 17.499889 156.000992 12.750037
v -17.500111 156.000961 -12.749966
v 17.499893 156.000992 -12.749963
vn -0.0000 -1.0000 -0.0000
vn -0.0000 -0.0000 1.0000
vn -0.0000 1.0000 -0.0000
vn -0.0000 -0.0000 -1.0000
vn 1.0000 -0.0000 -0.0000
vn 0.0001 1.0000 -0.0000
vn -1.0000 -0.0000 -0.0000
vn -0.0001 1.0000 -0.0000
vn -0.0000 -0.7303 -0.6831
vn -0.0000 -0.7303 0.6831
vn -0.7071 -0.7071 -0.0000
vn 0.7071 -0.7071 -0.0000
vn 0.0785 -0.0000 -0.9969
vn 0.2334 -0.0000 -0.9724
vn 0.3827 -0.0000 -0.9239
vn 0.5225 -0.0000 -0.8526
vn 0.6494 -0.0000 -0.7604
vn 0.7604 -0.0000 -0.6494
vn 0.8526 -0.0000 -0.5225
vn 0.9239 -0.0000 -0.3827
vn 0.9724 -0.0000 -0.2334
vn 0.9969 -0.0000 -0.0785
vn 0.9969 -0.0000 0.0785
vn 0.9724 -0.0000 0.2334
vn 0.9239 -0.0000 0.3827
vn 0.8526 -0.0000 0.5225
vn 0.7604 -0.0000 0.6494
vn 0.6494 -0.0000 0.7604
vn 0.5225 -0.0000 0.8526
vn 0.3827 -0.0000 0.9239
vn 0.2334 -0.0000 0.9724
vn 0.0785 -0.0000 0.9969
vn -0.0785 -0.0000 0.9969
vn -0.2334 -0.0000 0.9724
vn -0.3827 -0.0000 0.9239
vn -0.5225 -0.0000 0.8526
vn -0.6494 -0.0000 0.7604
vn -0.7604 -0.0000 0.6494
vn -0.8526 -0.0000 0.5225
vn -0.9239 -0.0000 0.3827
vn -0.9724 -0.0000 0.2334
vn -0.9969 -0.0000 0.0785
vn -0.9969 -0.0000 -0.0785
vn -0.9724 -0.0000 -0.2334
vn -0.9239 -0.0000 -0.3827
vn -0.8526 -0.0000 -0.5225
vn -0.7604 -0.0000 -0.6494
vn -0.6494 -0.0000 -0.7604
vn -0.5225 -0.0000 -0.8526
vn -0.3827 -0.0000 -0.9239
vn -0.2334 -0.0000 -0.9724
vn -0.0785 -0.0000 -0.9969
vn -0.7071 0.7071 -0.0000
vn 0.7071 0.7071 -0.0000
vn -0.0000 0.7303 0.6831
vn -0.0000 0.7303 -0.6831
vn 0.0001 -1.0000 -0.0000
vn -0.0001 -1.0000 -0.0000
vt 0.375000 0.000000
vt 0.625000 0.000000
vt 0.625000 0.250000
vt 0.375000 0.250000
vt 0.625000 0.500000
vt 0.375000 0.500000
vt 0.625000 0.750000
vt 0.375000 0.750000
vt 0.625000 1.000000
vt 0.375000 1.000000
vt 0.875000 0.500000
vt 0.875000 0.750000
vt 0.125000 0.500000
vt 0.125000 0.750000
vt 1.000000 0.500000
vt 1.000000 1.000000
vt 0.975000 1.000000
vt 0.975000 0.500000
vt 0.950000 1.000000
vt 0.950000 0.500000
vt 0.925000 1.000000
vt 0.925000 0.500000
vt 0.900000 1.000000
vt 0.900000 0.500000
vt 0.875000 1.000000
vt 0.875000 0.500000
vt 0.850000 1.000000
vt 0.850000 0.500000
vt 0.825000 1.000000
vt 0.825000 0.500000
vt 0.800000 1.000000
vt 0.800000 0.500000
vt 0.775000 1.000000
vt 0.775000 0.500000
vt 0.750000 1.000000
vt 0.750000 0.500000
vt 0.725000 1.000000
vt 0.725000 0.500000
vt 0.700000 1.000000
vt 0.700000 0.500000
vt 0.675000 1.000000
vt 0.675000 0.500000
vt 0.650000 1.000000
vt 0.650000 0.500000
vt 0.625000 1.000000
vt 0.625000 0.500000
vt 0.600000 1.000000
vt 0.600000 0.500000
vt 0.575000 1.000000
vt 0.575000 0.500000
vt 0.550000 1.000000
vt 0.550000 0.500000
vt 0.525000 1.000000
vt 0.525000 0.500000
vt 0.500000 1.000000
vt 0.500000 0.500000
vt 0.475000 1.000000
vt 0.475000 0.500000
vt 0.450000 1.000000
vt 0.450000 0.500000
vt 0.425000 1.000000
vt 0.425000 0.500000
vt 0.400000 1.000000
vt 0.400000 0.500000
vt 0.375000 1.000000
vt 0.375000 0.500000
vt 0.350000 1.000000
vt 0.350000 0.500000
vt 0.325000 1.000000
vt 0.325000 0.500000
vt 0.300000 1.000000
vt 0.300000 0.500000
vt 0.275000 1.000000
vt 0.275000 0.500000
vt 0.250000 1.000000
vt 0.250000 0.500000
vt 0.225000 1.000000
vt 0.225000 0.500000
vt 0.200000 1.000000
vt 0.200000 0.500000
vt 0.175000 1.000000
vt 0.175000 0.500000
vt 0.150000 1.000000
vt 0.150000 0.500000
vt 0.125000 1.000000
vt 0.125000 0.500000
vt 0.100000 1.000000
vt 0.100000 0.500000
vt 0.075000 1.000000
vt 0.075000 0.500000
vt 0.050000 1.000000
vt 0.050000 0.500000
vt 0.287544 0.487045
vt 0.250000 0.490000
vt 0.212456 0.487045
vt 0.175836 0.478254
vt 0.141042 0.463842
vt 0.108932 0.444164
vt 0.080294 0.419706
vt 0.055836 0.391068
vt 0.036158 0.358958
vt 0.021746 0.324164
vt 0.012955 0.287544
vt 0.010000 0.250000
vt 0.012955 0.212456
vt 0.021746 0.175836
vt 0.036158 0.141042
vt 0.055836 0.108932
vt 0.080294 0.080294
vt 0.108932 0.055836
vt 0.141042 0.036158
vt 0.175836 0.021746
vt 0.212456 0.012955
vt 0.250000 0.010000
vt 0.287544 0.012955
vt 0.324164 0.021746
vt 0.358958 0.036158
vt 0.391068 0.055836
vt 0.419706 0.080294
vt 0.444164 0.108932
vt 0.463842 0.141042
vt 0.478254 0.175836
vt 0.487045 0.212456
vt 0.490000 0.250000
vt 0.487045 0.287544
vt 0.478254 0.324164
vt 0.463842 0.358958
vt 0.444164 0.391068
vt 0.419706 0.419706
vt 0.391068 0.444164
vt 0.358958 0.463842
vt 0.324164 0.478254
vt 0.025000 1.000000
vt 0.025000 0.500000
vt 0.000000 1.000000
vt 0.000000 0.500000
vt 0.750000 0.490000
vt 0.787544 0.487045
vt 0.824164 0.478254
vt 0.858958 0.463842
vt 0.891068 0.444164
vt 0.919706 0.419706
vt 0.944164 0.391068
vt 0.963842 0.358958
vt 0.978254 0.324164
vt 0.987045 0.287544
vt 0.990000 0.250000
vt 0.987045 0.212456
vt 0.978254 0.175836
vt 0.963842 0.141042
vt 0.944164 0.108932
vt 0.919706 0.080294
vt 0.891068 0.055836
vt 0.858958 0.036158
vt 0.824164 0.021746
vt 0.787544 0.012955
vt 0.750000 0.010000
vt 0.712456 0.012955
vt 0.675836 0.021746
vt 0.641042 0.036158
vt 0.608932 0.055836
vt 0.580294 0.080294
vt 0.555836 0.108932
vt 0.536158 0.141042
vt 0.521746 0.175836
vt 0.512955 0.212456
vt 0.510000 0.250000
vt 0.512955 0.287544
vt 0.521746 0.324164
vt 0.536158 0.358958
vt 0.555836 0.391068
vt 0.580294 0.419706
vt 0.608932 0.444164
vt 0.641042 0.463842
vt 0.675836 0.478254
vt 0.712456 0.487045
s 0
f 1/1/1 2/2/1 4/3/1 3/4/1
f 3/4/2 4/3/2 8/5/2 7/6/2
f 7/6/3 8/5/3 6/7/3 5/8/3
f 5/8/4 6/7/4 2/9/4 1/10/4
f 3/4/2 7/6/2 15/6/2 13/4/2
f 11/5/5 10/11/5 9/12/5 12/7/5
f 2/9/4 6/7/4 12/7/4 9/9/4
f 8/5/2 4/3/2 10/3/2 11/5/2
f 6/7/6 8/5/6 11/5/6 12/7/6
f 13/13/7 15/6/7 16/8/7 14/14/7
f 14/10/4 1/10/4 18/10/4 20/10/4
f 7/6/8 5/8/8 16/8/8 15/6/8
f 5/8/4 1/10/4 14/10/4 16/8/4
f 20/10/9 18/10/9 30/10/9 32/10/9
f 1/1/5 3/4/5 17/4/5 18/1/5
f 13/13/7 14/14/7 20/14/7 19/13/7
f 3/4/2 13/4/2 19/4/2 17/4/2
f 2/9/4 9/9/4 22/9/4 24/9/4
f 23/3/7 24/2/7 25/2/7 27/3/7
f 9/12/5 10/11/5 21/11/5 22/12/5
f 10/3/2 4/3/2 23/3/2 21/3/2
f 4/3/7 2/2/7 24/2/7 23/3/7
f 27/3/1 25/9/1 26/12/1 28/3/1
f 21/3/10 23/3/10 27/3/10 28/3/10
f 24/9/9 22/9/9 26/9/9 25/9/9
f 22/12/5 21/11/5 28/11/5 26/12/5
f 30/1/1 29/4/1 31/4/1 32/1/1
f 19/13/7 20/14/7 32/14/7 31/13/7
f 17/4/10 19/4/10 31/4/10 29/4/10
f 18/1/5 17/4/5 29/4/5 30/1/5
f 33/14/11 36/7/11 38/5/11 34/13/11
f 33/14/2 35/8/2 36/7/2
f 37/6/3 38/5/3 36/7/3 35/8/3
f 34/13/4 38/5/4 37/6/4
f 34/13/5 37/6/5 35/8/5 33/14/5
f 39/14/12 42/7/12 44/5/12 40/13/12
f 39/14/4 41/8/4 42/7/4
f 43/6/3 44/5/3 42/7/3 41/8/3
f 40/13/2 44/5/2 43/6/2
f 40/13/7 43/6/7 41/8/7 39/14/7
f 45/15/13 46/16/13 48/17/13 47/18/13
f 47/18/14 48/17/14 50/19/14 49/20/14
f 49/20/15 50/19/15 52/21/15 51/22/15
f 51/22/16 52/21/16 54/23/16 53/24/16
f 53/24/17 54/23/17 56/25/17 55/26/17
f 55/26/18 56/25/18 58/27/18 57/28/18
f 57/28/19 58/27/19 60/29/19 59/30/19
f 59/30/20 60/29/20 62/31/20 61/32/20
f 61/32/21 62/31/21 64/33/21 63/34/21
f 63/34/22 64/33/22 66/35/22 65/36/22
f 65/36/23 66/35/23 68/37/23 67/38/23
f 67/38/24 68/37/24 70/39/24 69/40/24
f 69/40/25 70/39/25 72/41/25 71/42/25
f 71/42/26 72/41/26 74/43/26 73/44/26
f 73/44/27 74/43/27 76/45/27 75/46/27
f 75/46/28 76/45/28 78/47/28 77/48/28
f 77/48/29 78/47/29 80/49/29 79/50/29
f 79/50/30 80/49/30 82/51/30 81/52/30
f 81/52/31 82/51/31 84/53/31 83/54/31
f 83/54/32 84/53/32 86/55/32 85/56/32
f 85/56/33 86/55/33 88/57/33 87/58/33
f 87/58/34 88/57/34 90/59/34 89/60/34
f 89/60/35 90/59/35 92/61/35 91/62/35
f 91/62/36 92/61/36 94/63/36 93/64/36
f 93/64/37 94/63/37 96/65/37 95/66/37
f 95/66/38 96/65/38 98/67/38 97/68/38
f 97/68/39 98/67/39 100/69/39 99/70/39
f 99/70/40 100/69/40 102/71/40 101/72/40
f 101/72/41 102/71/41 104/73/41 103/74/41
f 103/74/42 104/73/42 106/75/42 105/76/42
f 105/76/43 106/75/43 108/77/43 107/78/43
f 107/78/44 108/77/44 110/79/44 109/80/44
f 109/80/45 110/79/45 112/81/45 111/82/45
f 111/82/46 112/81/46 114/83/46 113/84/46
f 113/84/47 114/83/47 116/85/47 115/86/47
f 115/86/48 116/85/48 118/87/48 117/88/48
f 117/88/49 118/87/49 120/89/49 119/90/49
f 119/90/50 120/89/50 122/91/50 121/92/50
f 48/93/3 46/94/3 124/95/3 122/96/3 120/97/3 118/98/3 116/99/3 114/100/3 112/101/3 110/102/3 108/103/3 106/104/3 104/105/3 102/106/3 100/107/3 98/108/3 96/109/3 94/110/3 92/111/3 90/112/3 88/113/3 86/114/3 84/115/3 82/116/3 80/117/3 78/118/3 76/119/3 74/120/3 72/121/3 70/122/3 68/123/3 66/124/3 64/125/3 62/126/3 60/127/3 58/128/3 56/129/3 54/130/3 52/131/3 50/132/3
f 121/92/51 122/91/51 124/133/51 123/134/51
f 123/134/52 124/133/52 46/135/52 45/136/52
f 45/137/1 47/138/1 49/139/1 51/140/1 53/141/1 55/142/1 57/143/1 59/144/1 61/145/1 63/146/1 65/147/1 67/148/1 69/149/1 71/150/1 73/151/1 75/152/1 77/153/1 79/154/1 81/155/1 83/156/1 85/157/1 87/158/1 89/159/1 91/160/1 93/161/1 95/162/1 97/163/1 99/164/1 101/165/1 103/166/1 105/167/1 107/168/1 109/169/1 111/170/1 113/171/1 115/172/1 117/173/1 119/174/1 121/175/1 123/176/1
f 125/14/53 128/7/53 130/5/53 126/13/53
f 125/14/4 127/8/4 128/7/4
f 129/6/1 130/5/1 128/7/1 127/8/1
f 126/13/2 130/5/2 129/6/2
f 126/13/5 129/6/5 127/8/5 125/14/5
f 131/14/54 134/7/54 136/5/54 132/13/54
f 131/14/2 133/8/2 134/7/2
f 135/6/1 136/5/1 134/7/1 133/8/1
f 132/13/4 136/5/4 135/6/4
f 132/13/7 135/6/7 133/8/7 131/14/7
f 151/1/7 152/4/7 140/4/7 139/1/7
f 152/4/55 150/4/55 138/4/55 140/4/55
f 150/13/5 149/14/5 137/14/5 138/13/5
f 139/1/3 140/4/3 138/4/3 137/1/3
f 147/12/7 148/11/7 141/11/7 143/12/7
f 145/9/56 147/9/56 143/9/56 144/9/56
f 148/3/55 146/3/55 142/3/55 141/3/55
f 142/3/3 144/9/3 143/12/3 141/3/3
f 165/3/5 167/2/5 145/2/5 146/3/5
f 159/3/2 165/3/2 146/3/2 148/3/2
f 160/12/7 159/11/7 148/11/7 147/12/7
f 146/3/5 145/2/5 144/2/5 142/3/5
f 167/9/4 160/9/4 147/9/4 145/9/4
f 166/4/2 156/4/2 150/4/2 152/4/2
f 156/13/5 155/14/5 149/14/5 150/13/5
f 168/1/7 166/4/7 152/4/7 151/1/7
f 149/10/56 151/10/56 139/10/56 137/10/56
f 164/8/4 168/10/4 155/10/4 153/8/4
f 162/6/57 164/8/57 153/8/57 154/6/57
f 155/10/4 168/10/4 151/10/4 149/10/4
f 156/13/5 154/6/5 153/8/5 155/14/5
f 163/7/58 161/5/58 158/5/58 157/7/58
f 161/5/2 165/3/2 159/3/2 158/5/2
f 167/9/4 163/7/4 157/7/4 160/9/4
f 158/5/7 159/11/7 160/12/7 157/7/7
f 166/4/2 162/6/2 154/6/2 156/4/2
f 164/8/4 163/7/4 167/9/4 168/10/4
f 162/6/1 161/5/1 163/7/1 164/8/1
f 166/4/2 165/3/2 161/5/2 162/6/2
f 168/1/3 167/2/3 165/3/3 166/4/3
