# Blender 3.6.4
# www.blender.org
o element_3_$.001
v -10.879990 0.000001 -5.000005
v -18.629990 0.000001 -5.000005
v -10.879990 0.000001 4.999996
v -18.629990 0.000001 4.999996
v -18.629990 -7.749999 -5.000005
v -18.629990 -7.749999 4.999996
v 21.630007 -25.999979 9.999996
v 18.629999 -25.999979 9.999996
v 21.630007 -27.950880 9.807849
v 18.629999 -27.950880 9.807849
v 21.630007 -29.826813 9.238791
v 18.629999 -29.826813 9.238791
v 21.630007 -31.555681 8.314693
v 18.629999 -31.555681 8.314693
v 21.630007 -33.071045 7.071065
v 18.629999 -33.071045 7.071065
v 21.630007 -34.314667 5.555700
v 18.629999 -34.314667 5.555700
v 21.630007 -35.238770 3.826833
v 18.629999 -35.238770 3.826833
v 21.630007 -35.807823 1.950902
v 18.629999 -35.807823 1.950902
v 21.630007 -35.999973 -0.000001
v 18.629999 -35.999973 -0.000001
v 21.630007 -35.807823 -1.950904
v 18.629999 -35.807823 -1.950904
v 21.630007 -35.238770 -3.826835
v 18.629999 -35.238770 -3.826835
v 21.630007 -34.314667 -5.555702
v 18.629999 -34.314667 -5.555702
v 21.630007 -33.071045 -7.071067
v 18.629999 -33.071045 -7.071067
v 21.630007 -31.555681 -8.314695
v 18.629999 -31.555681 -8.314695
v 21.630007 -29.826813 -9.238794
v 18.629999 -29.826813 -9.238794
v 21.630007 -27.950880 -9.807852
v 18.629999 -27.950880 -9.807852
v 21.630007 -25.999979 -9.999998
v 18.629999 -25.999979 -9.999998
v 21.630009 0.000002 10.749999
v 18.630001 0.000002 10.749999
v 21.630009 0.000002 -10.750001
v 18.630001 0.000002 -10.750001
v 21.630001 3.000003 10.749999
v 18.635000 3.000020 10.749999
v 18.635000 3.000020 -10.750003
v 21.630001 3.000003 -10.750001
v -18.629995 -25.999975 9.999999
v -21.630003 -25.999975 9.999999
v -18.629995 -27.950876 9.807852
v -21.630003 -27.950876 9.807852
v -18.629995 -29.826811 9.238794
v -21.630003 -29.826811 9.238794
v -18.629995 -31.555677 8.314695
v -21.630003 -31.555677 8.314695
v -18.629995 -33.071045 7.071067
v -21.630003 -33.071045 7.071067
v -18.629995 -34.314671 5.555701
v -21.630003 -34.314671 5.555701
v -18.629995 -35.238770 3.826833
v -21.630003 -35.238770 3.826833
v -18.629995 -35.807831 1.950902
v -21.630003 -35.807831 1.950902
v -18.629995 -35.999973 -0.000001
v -21.630003 -35.999973 -0.000001
v -18.629995 -35.807831 -1.950904
v -21.630003 -35.807831 -1.950904
v -18.629995 -35.238770 -3.826836
v -21.630003 -35.238770 -3.826836
v -18.629995 -34.314671 -5.555703
v -21.630003 -34.314671 -5.555703
v -18.629995 -33.071045 -7.071069
v -21.630003 -33.071045 -7.071069
v -18.629995 -31.555677 -8.314697
v -21.630003 -31.555677 -8.314697
v -18.629995 -29.826811 -9.238796
v -21.630003 -29.826811 -9.238796
v -18.629995 -27.950876 -9.807854
v -21.630003 -27.950876 -9.807854
v -18.629995 -25.999973 -10.000002
v -21.630003 -25.999973 -10.000002
v -18.629997 0.000005 10.749999
v -21.630001 0.000005 10.750001
v -18.629997 0.000005 -10.750001
v -21.630001 0.000005 -10.750001
v -18.624992 3.000022 10.749999
v -21.629997 3.000006 10.749999
v -21.629997 3.000006 -10.750001
v -18.624992 3.000023 -10.750001
v 6.924429 17.715551 4.249987
v 6.924437 17.715551 -4.250013
v 6.924428 2.999990 4.249987
v 21.639990 2.999989 4.250000
v 6.924436 2.999990 -4.250013
v 21.639997 2.999989 -4.250000
v 0.004956 2.999953 -9.999846
v 0.004989 152.999878 -10.000023
v 1.569300 2.999953 -9.876729
v 1.569334 152.999878 -9.876906
v 3.095127 2.999953 -9.510410
v 3.095158 152.999878 -9.510588
v 4.544861 2.999953 -8.909910
v 4.544892 152.999878 -8.910089
v 5.882809 2.999952 -8.090014
v 5.882840 152.999878 -8.090192
v 7.076023 2.999967 -7.070912
v 7.076054 152.999878 -7.071090
v 8.095125 2.999967 -5.877697
v 8.095157 152.999878 -5.877875
v 8.915021 2.999967 -4.539750
v 8.915051 152.999878 -4.539927
v 9.515519 2.999967 -3.090015
v 9.515553 152.999878 -3.090192
v 9.881838 2.999967 -1.564189
v 9.881870 152.999878 -1.564367
v 10.004955 2.999967 0.000156
v 10.004987 152.999878 -0.000022
v 9.881838 2.999967 1.564500
v 9.881870 152.999893 1.564323
v 9.515519 2.999967 3.090326
v 9.515553 152.999893 3.090148
v 8.915021 2.999967 4.540061
v 8.915051 152.999893 4.539884
v 8.095125 2.999967 5.878009
v 8.095157 152.999893 5.877831
v 7.076023 2.999967 7.071224
v 7.076054 152.999893 7.071046
v 5.882807 2.999967 8.090326
v 5.882840 152.999893 8.090148
v 4.544859 2.999982 8.910221
v 4.544892 152.999893 8.910044
v 3.095125 2.999982 9.510721
v 3.095156 152.999893 9.510543
v 1.569300 2.999982 9.877040
v 1.569332 152.999893 9.876862
v 0.004956 2.999982 10.000156
v 0.004988 152.999893 9.999978
v -1.559389 2.999982 9.877040
v -1.559357 152.999893 9.876862
v -3.085215 2.999983 9.510721
v -3.085181 152.999893 9.510543
v -4.534949 2.999983 8.910221
v -4.534918 152.999893 8.910044
v -5.872896 2.999983 8.090325
v -5.872864 152.999893 8.090147
v -7.066111 2.999968 7.071223
v -7.066079 152.999893 7.071045
v -8.085213 2.999968 5.878008
v -8.085181 152.999893 5.877830
v -8.905107 2.999968 4.540060
v -8.905076 152.999893 4.539883
v -9.505608 2.999968 3.090325
v -9.505576 152.999893 3.090147
v -9.871926 2.999968 1.564499
v -9.871894 152.999893 1.564322
v -9.995042 2.999968 0.000155
v -9.995010 152.999893 -0.000023
v -9.871926 2.999968 -1.564190
v -9.871894 152.999878 -1.564368
v -9.505608 2.999968 -3.090016
v -9.505576 152.999878 -3.090193
v -8.905107 2.999968 -4.539751
v -8.905076 152.999878 -4.539928
v -8.085213 2.999968 -5.877697
v -8.085181 152.999878 -5.877876
v -7.066111 2.999968 -7.070913
v -7.066079 152.999878 -7.071091
v -5.872895 2.999968 -8.090015
v -5.872864 152.999878 -8.090193
v -4.534949 2.999953 -8.909910
v -4.534916 152.999878 -8.910089
v -3.085213 2.999953 -9.510410
v -3.085181 152.999878 -9.510588
v -1.559389 2.999953 -9.876729
v -1.559355 152.999878 -9.876906
v 5.789425 138.284363 -4.250011
v 5.789432 138.284363 4.249989
v 5.789418 152.999924 -4.250011
v 20.504980 152.999924 -4.250023
v 5.789426 152.999924 4.249989
v 20.504988 152.999924 4.249977
v -5.779443 138.284378 4.249977
v -5.779445 138.284378 -4.250023
v -5.779450 152.999939 4.249977
v -20.495014 152.999924 4.249979
v -5.779452 152.999939 -4.250023
v -20.495014 152.999924 -4.250022
v 10.889994 -0.000001 4.999992
v 18.639994 -0.000001 5.000001
v 10.890000 -0.000001 -5.000008
v 18.640001 -0.000001 -5.000000
v 18.639994 -7.750001 5.000001
v 18.640001 -7.750001 -5.000000
v -6.879991 17.749990 -4.249998
v -6.879991 17.749990 4.250002
v -6.879992 2.999991 -4.249998
v -21.629992 2.999992 -4.249998
v -6.879992 2.999991 4.250002
v -21.629992 2.999992 4.250002
v 20.505001 170.282196 -5.499987
v 20.505001 170.282196 5.500013
v 17.505005 170.282196 -5.499987
v 17.505005 170.282181 5.500013
v -20.494997 170.282166 5.500013
v -17.494997 170.282166 5.500013
v -20.494997 170.282166 -5.499987
v -17.494997 170.282166 -5.499987
v -17.494997 163.500183 -12.749988
v -17.494997 163.500168 12.750012
v -20.494997 163.500183 -12.749988
v -20.494997 163.500168 12.750012
v 20.504999 163.500214 -12.749988
v 20.504999 163.500198 12.750012
v 17.505003 163.500214 -12.749988
v 17.505003 163.500198 12.750012
v 20.504999 153.000198 -12.749990
v 20.504999 153.000198 12.750010
v 20.504999 156.000198 -12.749990
v 20.504999 156.000198 12.750010
v -20.494997 153.000198 -12.749990
v -20.494997 153.000183 12.750010
v -20.494997 156.000198 12.750010
v -20.494997 156.000198 -12.749990
v -17.494997 152.999756 12.750010
v 17.505003 152.999756 12.750010
v -17.494997 152.999756 -12.749990
v 17.505003 152.999756 -12.749990
v -17.494997 156.000198 12.750010
v 17.505003 156.000198 12.750010
v -17.494997 156.000198 -12.749990
v 17.505003 156.000198 -12.749990
vn -0.0000 1.0000 -0.0000
vn -0.0000 -0.0000 1.0000
vn 0.7071 -0.7071 -0.0000
vn -0.0000 -0.0000 -1.0000
vn -1.0000 -0.0000 -0.0000
vn -0.0000 -0.0980 0.9952
vn -0.0000 -0.2903 0.9569
vn -0.0000 -0.4714 0.8819
vn -0.0000 -0.6344 0.7730
vn -0.0000 -0.7730 0.6344
vn -0.0000 -0.8819 0.4714
vn -0.0000 -0.9569 0.2903
vn -0.0000 -0.9952 0.0980
vn -0.0000 -0.9952 -0.0980
vn -0.0000 -0.9569 -0.2903
vn -0.0000 -0.8819 -0.4714
vn -0.0000 -0.7730 -0.6344
vn -0.0000 -0.6344 -0.7730
vn -0.0000 -0.4714 -0.8819
vn -0.0000 -0.2903 -0.9569
vn -0.0000 -0.0980 -0.9952
vn 1.0000 -0.0000 -0.0000
vn -0.0000 -0.0288 -0.9996
vn -0.0000 -0.0288 0.9996
vn -0.0000 -1.0000 -0.0000
vn 0.7071 0.7071 -0.0000
vn 0.0785 -0.0000 -0.9969
vn 0.2334 -0.0000 -0.9724
vn 0.3827 -0.0000 -0.9239
vn 0.5225 -0.0000 -0.8526
vn 0.6494 -0.0000 -0.7604
vn 0.7604 -0.0000 -0.6494
vn 0.8526 -0.0000 -0.5225
vn 0.9239 -0.0000 -0.3827
vn 0.9724 -0.0000 -0.2334
vn 0.9969 -0.0000 -0.0785
vn 0.9969 -0.0000 0.0785
vn 0.9724 -0.0000 0.2334
vn 0.9239 -0.0000 0.3827
vn 0.8526 -0.0000 0.5225
vn 0.7604 -0.0000 0.6494
vn 0.6494 -0.0000 0.7604
vn 0.5225 -0.0000 0.8526
vn 0.3827 -0.0000 0.9239
vn 0.2334 -0.0000 0.9724
vn 0.0785 -0.0000 0.9969
vn -0.0785 -0.0000 0.9969
vn -0.2334 -0.0000 0.9724
vn -0.3827 -0.0000 0.9239
vn -0.5225 -0.0000 0.8526
vn -0.6494 -0.0000 0.7604
vn -0.7604 -0.0000 0.6494
vn -0.8526 -0.0000 0.5225
vn -0.9239 -0.0000 0.3827
vn -0.9724 -0.0000 0.2334
vn -0.9969 -0.0000 0.0785
vn -0.9969 -0.0000 -0.0785
vn -0.9724 -0.0000 -0.2334
vn -0.9239 -0.0000 -0.3827
vn -0.8526 -0.0000 -0.5225
vn -0.7604 -0.0000 -0.6494
vn -0.6494 -0.0000 -0.7604
vn -0.5225 -0.0000 -0.8526
vn -0.3827 -0.0000 -0.9239
vn -0.2334 -0.0000 -0.9724
vn -0.0785 -0.0000 -0.9969
vn -0.7071 -0.7071 -0.0000
vn -0.7071 0.7071 -0.0000
vn -0.0000 0.7303 0.6831
vn -0.0000 0.7303 -0.6831
vn 0.0001 -1.0000 -0.0000
vn -0.0001 -1.0000 -0.0000
vt 0.375000 0.000000
vt 0.625000 0.000000
vt 0.625000 0.250000
vt 0.375000 0.250000
vt 0.875000 0.500000
vt 0.625000 0.500000
vt 0.625000 0.750000
vt 0.875000 0.750000
vt 1.000000 0.500000
vt 1.000000 1.000000
vt 0.968750 1.000000
vt 0.968750 0.500000
vt 0.937500 1.000000
vt 0.937500 0.500000
vt 0.906250 1.000000
vt 0.906250 0.500000
vt 0.875000 1.000000
vt 0.843750 1.000000
vt 0.843750 0.500000
vt 0.812500 1.000000
vt 0.812500 0.500000
vt 0.781250 1.000000
vt 0.781250 0.500000
vt 0.750000 1.000000
vt 0.750000 0.500000
vt 0.718750 1.000000
vt 0.718750 0.500000
vt 0.687500 1.000000
vt 0.687500 0.500000
vt 0.656250 1.000000
vt 0.656250 0.500000
vt 0.625000 1.000000
vt 0.593750 1.000000
vt 0.593750 0.500000
vt 0.562500 1.000000
vt 0.562500 0.500000
vt 0.531250 1.000000
vt 0.531250 0.500000
vt 0.500000 1.000000
vt 0.500000 0.500000
vt 0.125000 0.750000
vt 0.125000 0.500000
vt 0.375000 0.750000
vt 0.375000 0.500000
vt 0.975000 1.000000
vt 0.975000 0.500000
vt 0.950000 1.000000
vt 0.950000 0.500000
vt 0.925000 1.000000
vt 0.925000 0.500000
vt 0.900000 1.000000
vt 0.900000 0.500000
vt 0.875000 1.000000
vt 0.875000 0.500000
vt 0.850000 1.000000
vt 0.850000 0.500000
vt 0.825000 1.000000
vt 0.825000 0.500000
vt 0.800000 1.000000
vt 0.800000 0.500000
vt 0.775000 1.000000
vt 0.775000 0.500000
vt 0.750000 1.000000
vt 0.750000 0.500000
vt 0.725000 1.000000
vt 0.725000 0.500000
vt 0.700000 1.000000
vt 0.700000 0.500000
vt 0.675000 1.000000
vt 0.675000 0.500000
vt 0.650000 1.000000
vt 0.650000 0.500000
vt 0.625000 1.000000
vt 0.625000 0.500000
vt 0.600000 1.000000
vt 0.600000 0.500000
vt 0.575000 1.000000
vt 0.575000 0.500000
vt 0.550000 1.000000
vt 0.550000 0.500000
vt 0.525000 1.000000
vt 0.525000 0.500000
vt 0.500000 1.000000
vt 0.500000 0.500000
vt 0.475000 1.000000
vt 0.475000 0.500000
vt 0.450000 1.000000
vt 0.450000 0.500000
vt 0.425000 1.000000
vt 0.425000 0.500000
vt 0.400000 1.000000
vt 0.400000 0.500000
vt 0.375000 1.000000
vt 0.375000 0.500000
vt 0.350000 1.000000
vt 0.350000 0.500000
vt 0.325000 1.000000
vt 0.325000 0.500000
vt 0.300000 1.000000
vt 0.300000 0.500000
vt 0.275000 1.000000
vt 0.275000 0.500000
vt 0.250000 1.000000
vt 0.250000 0.500000
vt 0.225000 1.000000
vt 0.225000 0.500000
vt 0.200000 1.000000
vt 0.200000 0.500000
vt 0.175000 1.000000
vt 0.175000 0.500000
vt 0.150000 1.000000
vt 0.150000 0.500000
vt 0.125000 1.000000
vt 0.125000 0.500000
vt 0.100000 1.000000
vt 0.100000 0.500000
vt 0.075000 1.000000
vt 0.075000 0.500000
vt 0.050000 1.000000
vt 0.050000 0.500000
vt 0.287544 0.487045
vt 0.250000 0.490000
vt 0.212456 0.487045
vt 0.175836 0.478254
vt 0.141042 0.463842
vt 0.108932 0.444164
vt 0.080294 0.419706
vt 0.055836 0.391068
vt 0.036158 0.358958
vt 0.021746 0.324164
vt 0.012955 0.287544
vt 0.010000 0.250000
vt 0.012955 0.212456
vt 0.021746 0.175836
vt 0.036158 0.141042
vt 0.055836 0.108932
vt 0.080294 0.080294
vt 0.108932 0.055836
vt 0.141042 0.036158
vt 0.175836 0.021746
vt 0.212456 0.012955
vt 0.250000 0.010000
vt 0.287544 0.012955
vt 0.324164 0.021746
vt 0.358958 0.036158
vt 0.391068 0.055836
vt 0.419706 0.080294
vt 0.444164 0.108932
vt 0.463842 0.141042
vt 0.478254 0.175836
vt 0.487045 0.212456
vt 0.490000 0.250000
vt 0.487045 0.287544
vt 0.478254 0.324164
vt 0.463842 0.358958
vt 0.444164 0.391068
vt 0.419706 0.419706
vt 0.391068 0.444164
vt 0.358958 0.463842
vt 0.324164 0.478254
vt 0.025000 1.000000
vt 0.025000 0.500000
vt 0.000000 1.000000
vt 0.000000 0.500000
vt 0.750000 0.490000
vt 0.787544 0.487045
vt 0.824164 0.478254
vt 0.858958 0.463842
vt 0.891068 0.444164
vt 0.919706 0.419706
vt 0.944164 0.391068
vt 0.963842 0.358958
vt 0.978254 0.324164
vt 0.987045 0.287544
vt 0.990000 0.250000
vt 0.987045 0.212456
vt 0.978254 0.175836
vt 0.963842 0.141042
vt 0.944164 0.108932
vt 0.919706 0.080294
vt 0.891068 0.055836
vt 0.858958 0.036158
vt 0.824164 0.021746
vt 0.787544 0.012955
vt 0.750000 0.010000
vt 0.712456 0.012955
vt 0.675836 0.021746
vt 0.641042 0.036158
vt 0.608932 0.055836
vt 0.580294 0.080294
vt 0.555836 0.108932
vt 0.536158 0.141042
vt 0.521746 0.175836
vt 0.512955 0.212456
vt 0.510000 0.250000
vt 0.512955 0.287544
vt 0.521746 0.324164
vt 0.536158 0.358958
vt 0.555836 0.391068
vt 0.580294 0.419706
vt 0.608932 0.444164
vt 0.641042 0.463842
vt 0.675836 0.478254
vt 0.712456 0.487045
vt 0.375000 1.000000
s 0
f 1/1/1 2/2/1 4/3/1 3/4/1
f 3/4/2 4/5/2 6/6/2
f 1/1/3 3/4/3 6/6/3 5/7/3
f 2/8/4 1/1/4 5/7/4
f 6/6/5 4/5/5 2/8/5 5/7/5
f 7/9/6 8/10/6 10/11/6 9/12/6
f 9/12/7 10/11/7 12/13/7 11/14/7
f 11/14/8 12/13/8 14/15/8 13/16/8
f 13/16/9 14/15/9 16/17/9 15/5/9
f 15/5/10 16/17/10 18/18/10 17/19/10
f 17/19/11 18/18/11 20/20/11 19/21/11
f 19/21/12 20/20/12 22/22/12 21/23/12
f 21/23/13 22/22/13 24/24/13 23/25/13
f 23/25/14 24/24/14 26/26/14 25/27/14
f 25/27/15 26/26/15 28/28/15 27/29/15
f 27/29/16 28/28/16 30/30/16 29/31/16
f 29/31/17 30/30/17 32/32/17 31/6/17
f 31/6/18 32/32/18 34/33/18 33/34/18
f 33/34/19 34/33/19 36/35/19 35/36/19
f 35/36/20 36/35/20 38/37/20 37/38/20
f 37/38/21 38/37/21 40/39/21 39/40/21
f 10/11/5 8/10/5 40/39/5 38/37/5 36/35/5 34/33/5 32/32/5 30/30/5 28/28/5 26/26/5 24/24/5 22/22/5 20/20/5 18/18/5 16/17/5 14/15/5 12/13/5
f 7/9/22 9/12/22 11/14/22 13/16/22 15/5/22 17/19/22 19/21/22 21/23/22 23/25/22 25/27/22 27/29/22 29/31/22 31/6/22 33/34/22 35/36/22 37/38/22 39/40/22
f 40/39/5 8/10/5 42/10/5 44/39/5
f 47/39/1 90/40/1 87/9/1 46/10/1
f 7/9/22 39/40/22 43/40/22 41/9/22
f 39/40/23 40/39/23 44/39/23 43/40/23
f 8/10/24 7/9/24 41/9/24 42/10/24
f 45/9/1 48/40/1 47/39/1 46/10/1
f 42/10/2 41/9/2 45/9/2 46/10/2
f 41/9/22 43/40/22 48/40/22 45/9/22
f 43/40/4 44/39/4 47/39/4 48/40/4
f 49/9/6 50/10/6 52/11/6 51/12/6
f 51/12/7 52/11/7 54/13/7 53/14/7
f 53/14/8 54/13/8 56/15/8 55/16/8
f 55/16/9 56/15/9 58/17/9 57/5/9
f 57/5/10 58/17/10 60/18/10 59/19/10
f 59/19/11 60/18/11 62/20/11 61/21/11
f 61/21/12 62/20/12 64/22/12 63/23/12
f 63/23/13 64/22/13 66/24/13 65/25/13
f 65/25/14 66/24/14 68/26/14 67/27/14
f 67/27/15 68/26/15 70/28/15 69/29/15
f 69/29/16 70/28/16 72/30/16 71/31/16
f 71/31/17 72/30/17 74/32/17 73/6/17
f 73/6/18 74/32/18 76/33/18 75/34/18
f 75/34/19 76/33/19 78/35/19 77/36/19
f 77/36/20 78/35/20 80/37/20 79/38/20
f 79/38/21 80/37/21 82/39/21 81/40/21
f 52/11/5 50/10/5 82/39/5 80/37/5 78/35/5 76/33/5 74/32/5 72/30/5 70/28/5 68/26/5 66/24/5 64/22/5 62/20/5 60/18/5 58/17/5 56/15/5 54/13/5
f 49/9/22 51/12/22 53/14/22 55/16/22 57/5/22 59/19/22 61/21/22 63/23/22 65/25/22 67/27/22 69/29/22 71/31/22 73/6/22 75/34/22 77/36/22 79/38/22 81/40/22
f 82/39/5 50/10/5 84/10/5 86/39/5
f 86/39/5 84/10/5 88/10/5 89/39/5
f 49/9/22 81/40/22 85/40/22 83/9/22
f 81/40/23 82/39/23 86/39/23 85/40/23
f 50/10/24 49/9/24 83/9/24 84/10/24
f 87/9/1 90/40/1 89/39/1 88/10/1
f 84/10/2 83/9/2 87/9/2 88/10/2
f 85/40/4 86/39/4 89/39/4 90/40/4
f 46/10/2 87/9/2 83/9/2 42/10/2
f 44/39/25 42/10/25 83/9/25 85/40/25
f 47/39/4 44/39/4 85/40/4 90/40/4
f 91/41/26 94/7/26 96/6/26 92/42/26
f 91/41/2 93/43/2 94/7/2
f 95/44/25 96/6/25 94/7/25 93/43/25
f 92/42/4 96/6/4 95/44/4
f 92/42/5 95/44/5 93/43/5 91/41/5
f 97/9/27 98/10/27 100/45/27 99/46/27
f 99/46/28 100/45/28 102/47/28 101/48/28
f 101/48/29 102/47/29 104/49/29 103/50/29
f 103/50/30 104/49/30 106/51/30 105/52/30
f 105/52/31 106/51/31 108/53/31 107/54/31
f 107/54/32 108/53/32 110/55/32 109/56/32
f 109/56/33 110/55/33 112/57/33 111/58/33
f 111/58/34 112/57/34 114/59/34 113/60/34
f 113/60/35 114/59/35 116/61/35 115/62/35
f 115/62/36 116/61/36 118/63/36 117/64/36
f 117/64/37 118/63/37 120/65/37 119/66/37
f 119/66/38 120/65/38 122/67/38 121/68/38
f 121/68/39 122/67/39 124/69/39 123/70/39
f 123/70/40 124/69/40 126/71/40 125/72/40
f 125/72/41 126/71/41 128/73/41 127/74/41
f 127/74/42 128/73/42 130/75/42 129/76/42
f 129/76/43 130/75/43 132/77/43 131/78/43
f 131/78/44 132/77/44 134/79/44 133/80/44
f 133/80/45 134/79/45 136/81/45 135/82/45
f 135/82/46 136/81/46 138/83/46 137/84/46
f 137/84/47 138/83/47 140/85/47 139/86/47
f 139/86/48 140/85/48 142/87/48 141/88/48
f 141/88/49 142/87/49 144/89/49 143/90/49
f 143/90/50 144/89/50 146/91/50 145/92/50
f 145/92/51 146/91/51 148/93/51 147/94/51
f 147/94/52 148/93/52 150/95/52 149/96/52
f 149/96/53 150/95/53 152/97/53 151/98/53
f 151/98/54 152/97/54 154/99/54 153/100/54
f 153/100/55 154/99/55 156/101/55 155/102/55
f 155/102/56 156/101/56 158/103/56 157/104/56
f 157/104/57 158/103/57 160/105/57 159/106/57
f 159/106/58 160/105/58 162/107/58 161/108/58
f 161/108/59 162/107/59 164/109/59 163/110/59
f 163/110/60 164/109/60 166/111/60 165/112/60
f 165/112/61 166/111/61 168/113/61 167/114/61
f 167/114/62 168/113/62 170/115/62 169/116/62
f 169/116/63 170/115/63 172/117/63 171/118/63
f 171/118/64 172/117/64 174/119/64 173/120/64
f 100/121/1 98/122/1 176/123/1 174/124/1 172/125/1 170/126/1 168/127/1 166/128/1 164/129/1 162/130/1 160/131/1 158/132/1 156/133/1 154/134/1 152/135/1 150/136/1 148/137/1 146/138/1 144/139/1 142/140/1 140/141/1 138/142/1 136/143/1 134/144/1 132/145/1 130/146/1 128/147/1 126/148/1 124/149/1 122/150/1 120/151/1 118/152/1 116/153/1 114/154/1 112/155/1 110/156/1 108/157/1 106/158/1 104/159/1 102/160/1
f 173/120/65 174/119/65 176/161/65 175/162/65
f 175/162/66 176/161/66 98/163/66 97/164/66
f 97/165/25 99/166/25 101/167/25 103/168/25 105/169/25 107/170/25 109/171/25 111/172/25 113/173/25 115/174/25 117/175/25 119/176/25 121/177/25 123/178/25 125/179/25 127/180/25 129/181/25 131/182/25 133/183/25 135/184/25 137/185/25 139/186/25 141/187/25 143/188/25 145/189/25 147/190/25 149/191/25 151/192/25 153/193/25 155/194/25 157/195/25 159/196/25 161/197/25 163/198/25 165/199/25 167/200/25 169/201/25 171/202/25 173/203/25 175/204/25
f 177/41/3 180/7/3 182/6/3 178/42/3
f 177/41/4 179/43/4 180/7/4
f 181/44/1 182/6/1 180/7/1 179/43/1
f 178/42/2 182/6/2 181/44/2
f 178/42/5 181/44/5 179/43/5 177/41/5
f 183/41/67 186/7/67 188/6/67 184/42/67
f 183/41/2 185/43/2 186/7/2
f 187/44/1 188/6/1 186/7/1 185/43/1
f 184/42/4 188/6/4 187/44/4
f 184/42/22 187/44/22 185/43/22 183/41/22
f 189/1/1 190/2/1 192/3/1 191/4/1
f 191/4/4 192/5/4 194/6/4
f 189/1/67 191/4/67 194/6/67 193/7/67
f 190/8/2 189/1/2 193/7/2
f 194/6/22 192/5/22 190/8/22 193/7/22
f 195/41/68 198/7/68 200/6/68 196/42/68
f 195/41/4 197/43/4 198/7/4
f 199/44/25 200/6/25 198/7/25 197/43/25
f 196/42/2 200/6/2 199/44/2
f 196/42/22 199/44/22 197/43/22 195/41/22
f 215/1/5 216/4/5 204/4/5 203/1/5
f 216/4/69 214/4/69 202/4/69 204/4/69
f 214/42/22 213/41/22 201/41/22 202/42/22
f 203/1/1 204/4/1 202/4/1 201/1/1
f 211/8/5 212/5/5 205/5/5 207/8/5
f 209/32/70 211/32/70 207/32/70 208/32/70
f 212/3/69 210/3/69 206/3/69 205/3/69
f 206/3/1 208/32/1 207/8/1 205/3/1
f 229/3/22 231/2/22 209/2/22 210/3/22
f 223/3/2 229/3/2 210/3/2 212/3/2
f 224/8/5 223/5/5 212/5/5 211/8/5
f 210/3/22 209/2/22 208/2/22 206/3/22
f 231/32/4 224/32/4 211/32/4 209/32/4
f 230/4/2 220/4/2 214/4/2 216/4/2
f 220/42/22 219/41/22 213/41/22 214/42/22
f 232/1/5 230/4/5 216/4/5 215/1/5
f 213/205/70 215/205/70 203/205/70 201/205/70
f 228/43/4 232/205/4 219/205/4 217/43/4
f 226/44/71 228/43/71 217/43/71 218/44/71
f 219/205/4 232/205/4 215/205/4 213/205/4
f 220/42/22 218/44/22 217/43/22 219/41/22
f 227/7/72 225/6/72 222/6/72 221/7/72
f 225/6/2 229/3/2 223/3/2 222/6/2
f 231/32/4 227/7/4 221/7/4 224/32/4
f 222/6/5 223/5/5 224/8/5 221/7/5
f 230/4/2 226/44/2 218/44/2 220/4/2
f 228/43/4 227/7/4 231/32/4 232/205/4
f 226/44/25 225/6/25 227/7/25 228/43/25
f 230/4/2 229/3/2 225/6/2 226/44/2
f 232/1/1 231/2/1 229/3/1 230/4/1
