# Blender 3.6.4
# www.blender.org
o servo_2
v -14.499990 -9.600007 -12.360000
v 14.500011 -9.599994 -12.360000
v -14.499990 -9.600007 12.360000
v 14.500011 -9.599994 12.360000
v -14.500011 35.620232 -12.360000
v 14.499990 35.620247 -12.360000
v -14.500011 35.620232 12.360000
v 14.499990 35.620247 12.360000
v -14.499998 7.016055 12.360000
v 14.500003 7.016069 12.360000
v -14.499998 7.016055 -12.360000
v 14.500003 7.016069 -12.360000
v 16.000004 7.016070 12.360000
v 15.999990 35.620010 12.360000
v 15.999990 35.620010 -12.360000
v 16.000004 7.016069 -12.360000
v -16.000011 35.619995 -12.360000
v -16.000011 35.619995 12.360000
v -15.999997 7.016055 -12.360000
v -15.999997 7.016055 12.360000
v 16.000002 10.392591 7.000000
v 15.999990 35.620010 7.000000
v 15.999990 35.620010 -7.000000
v 16.000002 10.392591 -7.000000
v 17.500002 10.392592 7.000000
v 17.499990 35.620010 7.000000
v 17.499990 35.620010 -7.000000
v 17.500002 10.392591 -7.000000
v -16.000010 32.626278 -9.600001
v -16.000010 32.626278 9.600001
v -16.000006 23.693506 -9.600001
v -16.000006 23.693506 9.600001
v -17.500008 32.626278 -9.600001
v -17.500008 32.626278 9.600001
v -17.500004 23.693506 -9.600001
v -17.500004 23.693506 9.600001
v -18.624950 -9.599998 -0.000005
v -16.624990 -9.600019 -0.000005
v -18.624952 -9.415538 1.872862
v -16.624990 -9.415559 1.872862
v -18.624952 -8.869244 3.673758
v -16.624990 -8.869264 3.673758
v -18.624952 -7.982107 5.333470
v -16.624990 -7.982128 5.333470
v -18.624952 -6.788225 6.788221
v -16.624992 -6.788246 6.788221
v -18.624954 -5.333475 7.982105
v -16.624994 -5.333495 7.982105
v -18.624954 -3.673761 8.869240
v -16.624994 -3.673782 8.869240
v -18.624956 -1.872867 9.415536
v -16.624996 -1.872888 9.415536
v -18.624956 0.000000 9.599998
v -16.624996 -0.000020 9.599998
v -18.624956 1.872867 9.415536
v -16.624996 1.872847 9.415536
v -18.624958 3.673761 8.869242
v -16.624998 3.673740 8.869242
v -18.624958 5.333476 7.982106
v -16.624998 5.333455 7.982106
v -18.624960 6.788226 6.788225
v -16.625000 6.788205 6.788225
v -18.624960 7.982110 5.333473
v -16.625000 7.982089 5.333473
v -18.624960 8.869245 3.673761
v -16.625000 8.869224 3.673761
v -18.624960 9.415541 1.872866
v -16.625000 9.415520 1.872866
v -18.624960 9.600002 -0.000002
v -16.625000 9.599981 -0.000001
v -18.624960 9.415541 -1.872869
v -16.625000 9.415520 -1.872869
v -18.624960 8.869246 -3.673763
v -16.625000 8.869226 -3.673763
v -18.624960 7.982111 -5.333477
v -16.624998 7.982090 -5.333477
v -18.624960 6.788229 -6.788228
v -16.624998 6.788208 -6.788228
v -18.624958 5.333478 -7.982111
v -16.624996 5.333457 -7.982111
v -18.624958 3.673765 -8.869246
v -16.624996 3.673744 -8.869246
v -18.624954 1.872871 -9.415543
v -16.624994 1.872850 -9.415543
v -18.624954 0.000003 -9.600004
v -16.624994 -0.000018 -9.600004
v -18.624954 -1.872864 -9.415543
v -16.624994 -1.872885 -9.415543
v -18.624952 -3.673759 -8.869248
v -16.624992 -3.673779 -8.869248
v -18.624952 -5.333472 -7.982113
v -16.624992 -5.333493 -7.982113
v -18.624950 -6.788222 -6.788230
v -16.624990 -6.788243 -6.788230
v -18.624950 -7.982107 -5.333479
v -16.624990 -7.982128 -5.333479
v -18.624950 -8.869242 -3.673766
v -16.624990 -8.869263 -3.673766
v -18.624950 -9.415538 -1.872872
v -16.624990 -9.415559 -1.872872
v 16.635025 -7.354058 -6.170764
v 18.635035 -7.354057 -6.170763
v 16.635025 -8.416609 -4.617496
v 18.635035 -8.416607 -4.617496
v 16.635025 -9.155716 -2.886778
v 18.635035 -9.155713 -2.886777
v 16.635023 -9.542974 -1.045125
v 18.635031 -9.542971 -1.045124
v 16.635023 -9.563502 0.836693
v 18.635031 -9.563501 0.836693
v 16.635023 -9.216512 2.686355
v 18.635031 -9.216510 2.686356
v 16.635023 -8.515337 4.432784
v 18.635031 -8.515335 4.432785
v 16.635023 -7.486924 6.008863
v 18.635031 -7.486923 6.008864
v 16.635019 -6.170796 7.354025
v 18.635027 -6.170792 7.354026
v 16.635017 -4.617526 8.416575
v 18.635025 -4.617524 8.416576
v 16.635017 -2.886810 9.155681
v 18.635025 -2.886808 9.155683
v 16.635012 -1.045156 9.542939
v 18.635015 -1.045153 9.542941
v 16.635012 0.836662 9.563469
v 18.635015 0.836664 9.563470
v 16.635010 2.686324 9.216479
v 18.635014 2.686327 9.216479
v 16.635010 4.432752 8.515305
v 18.635014 4.432755 8.515306
v 16.635008 6.008832 7.486890
v 18.635012 6.008834 7.486891
v 16.635000 7.353994 6.170761
v 18.635010 7.353996 6.170762
v 16.635000 8.416545 4.617492
v 18.635010 8.416546 4.617493
v 16.635000 9.155651 2.886775
v 18.635010 9.155653 2.886775
v 16.635008 9.542910 1.045122
v 18.635012 9.542912 1.045122
v 16.635008 9.563438 -0.836696
v 18.635012 9.563440 -0.836695
v 16.635008 9.216448 -2.686360
v 18.635012 9.216450 -2.686359
v 16.635008 8.515274 -4.432787
v 18.635012 8.515275 -4.432787
v 16.635008 7.486860 -6.008867
v 18.635012 7.486862 -6.008865
v 16.635012 6.170730 -7.354029
v 18.635019 6.170732 -7.354028
v 16.635014 4.617460 -8.416578
v 18.635021 4.617463 -8.416577
v 16.635014 2.886744 -9.155684
v 18.635021 2.886746 -9.155684
v 16.635019 1.045091 -9.542944
v 18.635027 1.045092 -9.542942
v 16.635019 -0.836726 -9.563472
v 18.635027 -0.836724 -9.563470
v 16.635021 -2.686390 -9.216482
v 18.635029 -2.686388 -9.216480
v 16.635021 -4.432818 -8.515306
v 18.635029 -4.432816 -8.515306
v 16.635023 -6.008899 -7.486894
v 18.635031 -6.008895 -7.486893
v -17.621523 -0.000018 4.202420
v 17.621534 -0.000001 4.202420
v -17.621523 0.819833 4.121671
v 17.621534 0.819850 4.121671
v -17.621523 1.608180 3.882529
v 17.621534 1.608197 3.882530
v -17.621525 2.334723 3.494184
v 17.621532 2.334740 3.494184
v -17.621525 2.971544 2.971559
v 17.621532 2.971561 2.971559
v -17.621525 3.494168 2.334738
v 17.621532 3.494185 2.334738
v -17.621525 3.882514 1.608195
v 17.621532 3.882531 1.608195
v -17.621525 4.121656 0.819849
v 17.621532 4.121673 0.819849
v -17.621525 4.202404 -0.000003
v 17.621532 4.202421 -0.000003
v -17.621525 4.121655 -0.819855
v 17.621532 4.121672 -0.819855
v -17.621525 3.882514 -1.608200
v 17.621532 3.882531 -1.608200
v -17.621525 3.494168 -2.334744
v 17.621532 3.494185 -2.334744
v -17.621525 2.971544 -2.971564
v 17.621532 2.971561 -2.971564
v -17.621525 2.334723 -3.494189
v 17.621532 2.334740 -3.494189
v -17.621523 1.608180 -3.882535
v 17.621534 1.608197 -3.882535
v -17.621523 0.819833 -4.121677
v 17.621534 0.819850 -4.121677
v -17.621523 -0.000018 -4.202425
v 17.621534 -0.000001 -4.202425
v -17.621523 -0.819870 -4.121677
v 17.621534 -0.819853 -4.121677
v -17.621523 -1.608216 -3.882535
v 17.621534 -1.608199 -3.882535
v -17.621521 -2.334760 -3.494190
v 17.621536 -2.334741 -3.494189
v -17.621521 -2.971580 -2.971564
v 17.621536 -2.971562 -2.971564
v -17.621521 -3.494204 -2.334743
v 17.621536 -3.494187 -2.334743
v -17.621521 -3.882550 -1.608200
v 17.621536 -3.882533 -1.608200
v -17.621521 -4.121693 -0.819855
v 17.621536 -4.121675 -0.819855
v -17.621521 -4.202440 -0.000003
v 17.621536 -4.202423 -0.000003
v -17.621521 -4.121693 0.819849
v 17.621536 -4.121675 0.819849
v -17.621521 -3.882550 1.608195
v 17.621536 -3.882533 1.608195
v -17.621521 -3.494205 2.334738
v 17.621536 -3.494188 2.334738
v -17.621521 -2.971580 2.971559
v 17.621536 -2.971562 2.971559
v -17.621521 -2.334760 3.494184
v 17.621536 -2.334743 3.494184
v -17.621523 -1.608216 3.882529
v 17.621534 -1.608199 3.882529
v -17.621523 -0.819870 4.121672
v 17.621534 -0.819853 4.121672
vn -0.0000 -1.0000 -0.0000
vn -0.0000 -0.0000 1.0000
vn -0.0000 1.0000 -0.0000
vn -0.0000 -0.0000 -1.0000
vn 1.0000 -0.0000 -0.0000
vn -1.0000 -0.0000 -0.0000
vn 0.0002 1.0000 -0.0000
vn -0.0002 1.0000 -0.0000
vn -0.0000 -0.9952 0.0980
vn -0.0000 -0.9569 0.2903
vn -0.0000 -0.8819 0.4714
vn -0.0000 -0.7730 0.6344
vn -0.0000 -0.6344 0.7730
vn -0.0000 -0.4714 0.8819
vn -0.0000 -0.2903 0.9569
vn -0.0000 -0.0980 0.9952
vn -0.0000 0.0980 0.9952
vn -0.0000 0.2903 0.9569
vn -0.0000 0.4714 0.8819
vn -0.0000 0.6344 0.7730
vn -0.0000 0.7730 0.6344
vn -0.0000 0.8819 0.4714
vn -0.0000 0.9569 0.2903
vn -0.0000 0.9952 0.0980
vn -0.0000 0.9952 -0.0980
vn -0.0000 0.9569 -0.2903
vn -0.0000 0.8819 -0.4714
vn -0.0000 0.7730 -0.6344
vn -0.0000 0.6344 -0.7730
vn -0.0000 0.4714 -0.8819
vn -0.0000 0.2903 -0.9569
vn -0.0000 0.0980 -0.9952
vn -0.0000 -0.0980 -0.9952
vn -0.0000 -0.2903 -0.9569
vn -0.0000 -0.4714 -0.8819
vn -0.0000 -0.6344 -0.7730
vn -0.0000 -0.7730 -0.6344
vn -0.0000 -0.8819 -0.4714
vn -0.0000 -0.9569 -0.2903
vn -0.0000 -0.9952 -0.0980
vn -0.0000 -0.8254 -0.5646
vn -0.0000 -0.9197 -0.3927
vn -0.0000 -0.9786 -0.2058
vn -0.0000 -0.9999 -0.0109
vn -0.0000 -0.9829 0.1844
vn -0.0000 -0.9280 0.3726
vn -0.0000 -0.8375 0.5465
vn -0.0000 -0.7148 0.6994
vn -0.0000 -0.5646 0.8254
vn -0.0000 -0.3927 0.9197
vn -0.0000 -0.2058 0.9786
vn -0.0000 -0.0109 0.9999
vn -0.0000 0.1844 0.9829
vn -0.0000 0.3726 0.9280
vn -0.0000 0.5465 0.8375
vn -0.0000 0.6994 0.7148
vn -0.0000 0.8254 0.5646
vn -0.0000 0.9197 0.3927
vn -0.0000 0.9786 0.2058
vn -0.0000 0.9999 0.0109
vn -0.0000 0.9829 -0.1844
vn -0.0000 0.9280 -0.3726
vn -0.0000 0.8375 -0.5465
vn -0.0000 0.7148 -0.6994
vn -0.0000 0.5646 -0.8254
vn -0.0000 0.3927 -0.9197
vn -0.0000 0.2058 -0.9786
vn -0.0000 0.0109 -0.9999
vn -0.0000 -0.1844 -0.9829
vn -0.0000 -0.3726 -0.9280
vn -0.0000 -0.5465 -0.8375
vn -0.0000 -0.6994 -0.7148
vt 0.375000 0.000000
vt 0.625000 0.000000
vt 0.625000 0.250000
vt 0.375000 0.250000
vt 0.375000 0.341862
vt 0.625000 0.341862
vt 0.625000 0.500000
vt 0.375000 0.500000
vt 0.625000 0.750000
vt 0.375000 0.750000
vt 0.375000 0.908138
vt 0.625000 0.908138
vt 0.625000 1.000000
vt 0.375000 1.000000
vt 0.783138 0.500000
vt 0.875000 0.500000
vt 0.875000 0.750000
vt 0.783138 0.750000
vt 0.125000 0.500000
vt 0.216862 0.500000
vt 0.216862 0.750000
vt 0.125000 0.750000
vt 1.000000 0.500000
vt 1.000000 1.000000
vt 0.968750 1.000000
vt 0.968750 0.500000
vt 0.937500 1.000000
vt 0.937500 0.500000
vt 0.906250 1.000000
vt 0.906250 0.500000
vt 0.875000 1.000000
vt 0.843750 1.000000
vt 0.843750 0.500000
vt 0.812500 1.000000
vt 0.812500 0.500000
vt 0.781250 1.000000
vt 0.781250 0.500000
vt 0.750000 1.000000
vt 0.750000 0.500000
vt 0.718750 1.000000
vt 0.718750 0.500000
vt 0.687500 1.000000
vt 0.687500 0.500000
vt 0.656250 1.000000
vt 0.656250 0.500000
vt 0.593750 1.000000
vt 0.593750 0.500000
vt 0.562500 1.000000
vt 0.562500 0.500000
vt 0.531250 1.000000
vt 0.531250 0.500000
vt 0.500000 1.000000
vt 0.500000 0.500000
vt 0.468750 1.000000
vt 0.468750 0.500000
vt 0.437500 1.000000
vt 0.437500 0.500000
vt 0.406250 1.000000
vt 0.406250 0.500000
vt 0.343750 1.000000
vt 0.343750 0.500000
vt 0.312500 1.000000
vt 0.312500 0.500000
vt 0.281250 1.000000
vt 0.281250 0.500000
vt 0.250000 1.000000
vt 0.250000 0.500000
vt 0.218750 1.000000
vt 0.218750 0.500000
vt 0.187500 1.000000
vt 0.187500 0.500000
vt 0.156250 1.000000
vt 0.156250 0.500000
vt 0.125000 1.000000
vt 0.093750 1.000000
vt 0.093750 0.500000
vt 0.062500 1.000000
vt 0.062500 0.500000
vt 0.296822 0.485388
vt 0.250000 0.490000
vt 0.203178 0.485388
vt 0.158156 0.471731
vt 0.116663 0.449553
vt 0.080294 0.419706
vt 0.050447 0.383337
vt 0.028269 0.341844
vt 0.014612 0.296822
vt 0.010000 0.250000
vt 0.014612 0.203178
vt 0.028269 0.158156
vt 0.050447 0.116663
vt 0.080294 0.080294
vt 0.116663 0.050447
vt 0.158156 0.028269
vt 0.203178 0.014612
vt 0.250000 0.010000
vt 0.296822 0.014612
vt 0.341844 0.028269
vt 0.383337 0.050447
vt 0.419706 0.080294
vt 0.449553 0.116663
vt 0.471731 0.158156
vt 0.485388 0.203178
vt 0.490000 0.250000
vt 0.485388 0.296822
vt 0.471731 0.341844
vt 0.449553 0.383337
vt 0.419706 0.419706
vt 0.383337 0.449553
vt 0.341844 0.471731
vt 0.031250 1.000000
vt 0.031250 0.500000
vt 0.000000 1.000000
vt 0.000000 0.500000
vt 0.750000 0.490000
vt 0.796822 0.485388
vt 0.841844 0.471731
vt 0.883337 0.449553
vt 0.919706 0.419706
vt 0.949553 0.383337
vt 0.971731 0.341844
vt 0.985388 0.296822
vt 0.990000 0.250000
vt 0.985388 0.203178
vt 0.971731 0.158156
vt 0.949553 0.116663
vt 0.919706 0.080294
vt 0.883337 0.050447
vt 0.841844 0.028269
vt 0.796822 0.014612
vt 0.750000 0.010000
vt 0.703178 0.014612
vt 0.658156 0.028269
vt 0.616663 0.050447
vt 0.580294 0.080294
vt 0.550447 0.116663
vt 0.528269 0.158156
vt 0.514612 0.203178
vt 0.510000 0.250000
vt 0.514612 0.296822
vt 0.528269 0.341844
vt 0.550447 0.383337
vt 0.580294 0.419706
vt 0.616663 0.449553
vt 0.658156 0.471731
vt 0.703178 0.485388
s 0
f 1/1/1 2/2/1 4/3/1 3/4/1
f 9/5/2 10/6/2 8/7/2 7/8/2
f 7/8/3 8/7/3 6/9/3 5/10/3
f 11/11/4 12/12/4 2/13/4 1/14/4
f 9/5/2 7/8/2 18/8/2 20/5/2
f 10/15/5 4/16/5 2/17/5 12/18/5
f 8/7/2 10/6/2 13/6/2 14/7/2
f 3/19/6 9/20/6 11/21/6 1/22/6
f 5/10/4 6/9/4 12/12/4 11/11/4
f 3/4/2 4/3/2 10/6/2 9/5/2
f 15/9/3 14/7/3 22/7/3 23/9/3
f 10/15/1 12/18/1 16/18/1 13/15/1
f 6/9/7 8/7/7 14/7/7 15/9/7
f 12/12/4 6/9/4 15/9/4 16/12/4
f 19/21/6 20/20/6 32/20/6 31/21/6
f 5/10/4 11/11/4 19/11/4 17/10/4
f 11/21/1 9/20/1 20/20/1 19/21/1
f 7/8/8 5/10/8 17/10/8 18/8/8
f 24/12/4 23/9/4 27/9/4 28/12/4
f 16/12/5 15/9/5 23/9/5 24/12/5
f 14/7/5 13/6/5 21/6/5 22/7/5
f 13/15/5 16/18/5 24/18/5 21/15/5
f 26/7/5 25/15/5 28/18/5 27/9/5
f 22/7/2 21/6/2 25/6/2 26/7/2
f 21/15/1 24/18/1 28/18/1 25/15/1
f 23/9/3 22/7/3 26/7/3 27/9/3
f 29/10/4 31/11/4 35/11/4 33/10/4
f 17/10/6 19/11/6 31/11/6 29/10/6
f 20/5/6 18/8/6 30/8/6 32/5/6
f 18/8/6 17/10/6 29/10/6 30/8/6
f 36/20/6 34/8/6 33/10/6 35/21/6
f 32/5/2 30/8/2 34/8/2 36/5/2
f 30/8/3 29/10/3 33/10/3 34/8/3
f 31/21/1 32/20/1 36/20/1 35/21/1
f 37/23/9 38/24/9 40/25/9 39/26/9
f 39/26/10 40/25/10 42/27/10 41/28/10
f 41/28/11 42/27/11 44/29/11 43/30/11
f 43/30/12 44/29/12 46/31/12 45/16/12
f 45/16/13 46/31/13 48/32/13 47/33/13
f 47/33/14 48/32/14 50/34/14 49/35/14
f 49/35/15 50/34/15 52/36/15 51/37/15
f 51/37/16 52/36/16 54/38/16 53/39/16
f 53/39/17 54/38/17 56/40/17 55/41/17
f 55/41/18 56/40/18 58/42/18 57/43/18
f 57/43/19 58/42/19 60/44/19 59/45/19
f 59/45/20 60/44/20 62/13/20 61/7/20
f 61/7/21 62/13/21 64/46/21 63/47/21
f 63/47/22 64/46/22 66/48/22 65/49/22
f 65/49/23 66/48/23 68/50/23 67/51/23
f 67/51/24 68/50/24 70/52/24 69/53/24
f 69/53/25 70/52/25 72/54/25 71/55/25
f 71/55/26 72/54/26 74/56/26 73/57/26
f 73/57/27 74/56/27 76/58/27 75/59/27
f 75/59/28 76/58/28 78/14/28 77/8/28
f 77/8/29 78/14/29 80/60/29 79/61/29
f 79/61/30 80/60/30 82/62/30 81/63/30
f 81/63/31 82/62/31 84/64/31 83/65/31
f 83/65/32 84/64/32 86/66/32 85/67/32
f 85/67/33 86/66/33 88/68/33 87/69/33
f 87/69/34 88/68/34 90/70/34 89/71/34
f 89/71/35 90/70/35 92/72/35 91/73/35
f 91/73/36 92/72/36 94/74/36 93/19/36
f 93/19/37 94/74/37 96/75/37 95/76/37
f 95/76/38 96/75/38 98/77/38 97/78/38
f 40/79/5 38/80/5 100/81/5 98/82/5 96/83/5 94/84/5 92/85/5 90/86/5 88/87/5 86/88/5 84/89/5 82/90/5 80/91/5 78/92/5 76/93/5 74/94/5 72/95/5 70/96/5 68/97/5 66/98/5 64/99/5 62/100/5 60/101/5 58/102/5 56/103/5 54/104/5 52/105/5 50/106/5 48/107/5 46/108/5 44/109/5 42/110/5
f 97/78/39 98/77/39 100/111/39 99/112/39
f 99/112/40 100/111/40 38/113/40 37/114/40
f 37/115/6 39/116/6 41/117/6 43/118/6 45/119/6 47/120/6 49/121/6 51/122/6 53/123/6 55/124/6 57/125/6 59/126/6 61/127/6 63/128/6 65/129/6 67/130/6 69/131/6 71/132/6 73/133/6 75/134/6 77/135/6 79/136/6 81/137/6 83/138/6 85/139/6 87/140/6 89/141/6 91/142/6 93/143/6 95/144/6 97/145/6 99/146/6
f 101/23/41 102/24/41 104/25/41 103/26/41
f 103/26/42 104/25/42 106/27/42 105/28/42
f 105/28/43 106/27/43 108/29/43 107/30/43
f 107/30/44 108/29/44 110/31/44 109/16/44
f 109/16/45 110/31/45 112/32/45 111/33/45
f 111/33/46 112/32/46 114/34/46 113/35/46
f 113/35/47 114/34/47 116/36/47 115/37/47
f 115/37/48 116/36/48 118/38/48 117/39/48
f 117/39/49 118/38/49 120/40/49 119/41/49
f 119/41/50 120/40/50 122/42/50 121/43/50
f 121/43/51 122/42/51 124/44/51 123/45/51
f 123/45/52 124/44/52 126/13/52 125/7/52
f 125/7/53 126/13/53 128/46/53 127/47/53
f 127/47/54 128/46/54 130/48/54 129/49/54
f 129/49/55 130/48/55 132/50/55 131/51/55
f 131/51/56 132/50/56 134/52/56 133/53/56
f 133/53/57 134/52/57 136/54/57 135/55/57
f 135/55/58 136/54/58 138/56/58 137/57/58
f 137/57/59 138/56/59 140/58/59 139/59/59
f 139/59/60 140/58/60 142/14/60 141/8/60
f 141/8/61 142/14/61 144/60/61 143/61/61
f 143/61/62 144/60/62 146/62/62 145/63/62
f 145/63/63 146/62/63 148/64/63 147/65/63
f 147/65/64 148/64/64 150/66/64 149/67/64
f 149/67/65 150/66/65 152/68/65 151/69/65
f 151/69/66 152/68/66 154/70/66 153/71/66
f 153/71/67 154/70/67 156/72/67 155/73/67
f 155/73/68 156/72/68 158/74/68 157/19/68
f 157/19/69 158/74/69 160/75/69 159/76/69
f 159/76/70 160/75/70 162/77/70 161/78/70
f 104/79/5 102/80/5 164/81/5 162/82/5 160/83/5 158/84/5 156/85/5 154/86/5 152/87/5 150/88/5 148/89/5 146/90/5 144/91/5 142/92/5 140/93/5 138/94/5 136/95/5 134/96/5 132/97/5 130/98/5 128/99/5 126/100/5 124/101/5 122/102/5 120/103/5 118/104/5 116/105/5 114/106/5 112/107/5 110/108/5 108/109/5 106/110/5
f 161/78/71 162/77/71 164/111/71 163/112/71
f 163/112/72 164/111/72 102/113/72 101/114/72
f 101/115/6 103/116/6 105/117/6 107/118/6 109/119/6 111/120/6 113/121/6 115/122/6 117/123/6 119/124/6 121/125/6 123/126/6 125/127/6 127/128/6 129/129/6 131/130/6 133/131/6 135/132/6 137/133/6 139/134/6 141/135/6 143/136/6 145/137/6 147/138/6 149/139/6 151/140/6 153/141/6 155/142/6 157/143/6 159/144/6 161/145/6 163/146/6
f 165/23/17 166/24/17 168/25/17 167/26/17
f 167/26/18 168/25/18 170/27/18 169/28/18
f 169/28/19 170/27/19 172/29/19 171/30/19
f 171/30/20 172/29/20 174/31/20 173/16/20
f 173/16/21 174/31/21 176/32/21 175/33/21
f 175/33/22 176/32/22 178/34/22 177/35/22
f 177/35/23 178/34/23 180/36/23 179/37/23
f 179/37/24 180/36/24 182/38/24 181/39/24
f 181/39/25 182/38/25 184/40/25 183/41/25
f 183/41/26 184/40/26 186/42/26 185/43/26
f 185/43/27 186/42/27 188/44/27 187/45/27
f 187/45/28 188/44/28 190/13/28 189/7/28
f 189/7/29 190/13/29 192/46/29 191/47/29
f 191/47/30 192/46/30 194/48/30 193/49/30
f 193/49/31 194/48/31 196/50/31 195/51/31
f 195/51/32 196/50/32 198/52/32 197/53/32
f 197/53/33 198/52/33 200/54/33 199/55/33
f 199/55/34 200/54/34 202/56/34 201/57/34
f 201/57/35 202/56/35 204/58/35 203/59/35
f 203/59/36 204/58/36 206/14/36 205/8/36
f 205/8/37 206/14/37 208/60/37 207/61/37
f 207/61/38 208/60/38 210/62/38 209/63/38
f 209/63/39 210/62/39 212/64/39 211/65/39
f 211/65/40 212/64/40 214/66/40 213/67/40
f 213/67/9 214/66/9 216/68/9 215/69/9
f 215/69/10 216/68/10 218/70/10 217/71/10
f 217/71/11 218/70/11 220/72/11 219/73/11
f 219/73/12 220/72/12 222/74/12 221/19/12
f 221/19/13 222/74/13 224/75/13 223/76/13
f 223/76/14 224/75/14 226/77/14 225/78/14
f 168/79/5 166/80/5 228/81/5 226/82/5 224/83/5 222/84/5 220/85/5 218/86/5 216/87/5 214/88/5 212/89/5 210/90/5 208/91/5 206/92/5 204/93/5 202/94/5 200/95/5 198/96/5 196/97/5 194/98/5 192/99/5 190/100/5 188/101/5 186/102/5 184/103/5 182/104/5 180/105/5 178/106/5 176/107/5 174/108/5 172/109/5 170/110/5
f 225/78/15 226/77/15 228/111/15 227/112/15
f 227/112/16 228/111/16 166/113/16 165/114/16
f 165/115/6 167/116/6 169/117/6 171/118/6 173/119/6 175/120/6 177/121/6 179/122/6 181/123/6 183/124/6 185/125/6 187/126/6 189/127/6 191/128/6 193/129/6 195/130/6 197/131/6 199/132/6 201/133/6 203/134/6 205/135/6 207/136/6 209/137/6 211/138/6 213/139/6 215/140/6 217/141/6 219/142/6 221/143/6 223/144/6 225/145/6 227/146/6
