# Blender 3.6.4
# www.blender.org
o servo_1
v -12.360001 -14.500003 -22.609999
v -12.360001 14.499997 -22.610003
v 12.359999 -14.500003 -22.609999
v 12.359999 14.499997 -22.610003
v -12.359999 -14.499997 22.610003
v -12.359999 14.500003 22.609999
v 12.360001 -14.499997 22.610003
v 12.360001 14.500003 22.609999
v 12.360000 -14.500001 -5.993937
v 12.360000 14.499999 -5.993940
v -12.360000 -14.500001 -5.993936
v -12.360000 14.499999 -5.993939
v 12.360000 15.999999 -5.993940
v 12.360001 16.000002 22.609999
v -12.359999 16.000002 22.609999
v -12.360000 15.999999 -5.993940
v -12.359999 -15.999997 22.610003
v 12.360001 -15.999997 22.610003
v -12.360000 -16.000000 -5.993936
v 12.360000 -16.000000 -5.993937
v 7.000000 16.000000 -2.617419
v 7.000001 16.000002 22.609999
v -6.999999 16.000002 22.609999
v -7.000000 16.000000 -2.617419
v 7.000000 17.500000 -2.617419
v 7.000001 17.500002 22.609999
v -6.999999 17.500002 22.609999
v -7.000000 17.500000 -2.617419
v -9.600000 -15.999998 19.616285
v 9.600002 -15.999998 19.616285
v -9.600001 -15.999999 10.683516
v 9.600001 -15.999999 10.683517
v -9.600000 -17.499977 19.616285
v 9.600002 -17.499977 19.616285
v -9.600001 -17.499977 10.683516
v 9.600001 -17.499977 10.683517
v 4.202453 -17.621532 -13.010008
v 4.202453 17.621531 -13.010012
v 4.121704 -17.621532 -12.190156
v 4.121704 17.621531 -12.190160
v 3.882562 -17.621532 -11.401811
v 3.882562 17.621531 -11.401814
v 3.494217 -17.621532 -10.675266
v 3.494217 17.621531 -10.675270
v 2.971592 -17.621532 -10.038446
v 2.971592 17.621531 -10.038450
v 2.334772 -17.621532 -9.515822
v 2.334772 17.621531 -9.515826
v 1.608228 -17.621532 -9.127476
v 1.608228 17.621531 -9.127480
v 0.819883 -17.621532 -8.888333
v 0.819883 17.621531 -8.888337
v 0.000031 -17.621532 -8.807586
v 0.000031 17.621531 -8.807590
v -0.819821 -17.621532 -8.888333
v -0.819821 17.621531 -8.888337
v -1.608167 -17.621532 -9.127476
v -1.608167 17.621531 -9.127480
v -2.334710 -17.621532 -9.515822
v -2.334710 17.621531 -9.515826
v -2.971531 -17.621532 -10.038446
v -2.971531 17.621531 -10.038450
v -3.494156 -17.621532 -10.675266
v -3.494156 17.621531 -10.675270
v -3.882501 -17.621532 -11.401811
v -3.882501 17.621531 -11.401814
v -4.121644 -17.621532 -12.190156
v -4.121644 17.621531 -12.190160
v -4.202392 -17.621532 -13.010008
v -4.202392 17.621531 -13.010012
v -4.121644 -17.621532 -13.829859
v -4.121644 17.621531 -13.829863
v -3.882502 -17.621532 -14.618206
v -3.882502 17.621531 -14.618210
v -3.494156 -17.621532 -15.344748
v -3.494156 17.621531 -15.344752
v -2.971531 -17.621532 -15.981568
v -2.971531 17.621531 -15.981572
v -2.334710 -17.621532 -16.504194
v -2.334710 17.621531 -16.504198
v -1.608167 -17.621532 -16.892540
v -1.608167 17.621531 -16.892544
v -0.819822 -17.621532 -17.131681
v -0.819822 17.621531 -17.131685
v 0.000030 -17.621532 -17.212431
v 0.000030 17.621531 -17.212435
v 0.819882 -17.621532 -17.131681
v 0.819882 17.621531 -17.131685
v 1.608228 -17.621532 -16.892540
v 1.608228 17.621531 -16.892544
v 2.334771 -17.621532 -16.504194
v 2.334771 17.621531 -16.504198
v 2.971592 -17.621532 -15.981568
v 2.971592 17.621531 -15.981572
v 3.494216 -17.621532 -15.344748
v 3.494216 17.621531 -15.344752
v 3.882562 -17.621532 -14.618206
v 3.882562 17.621531 -14.618210
v 4.121704 -17.621532 -13.829859
v 4.121704 17.621531 -13.829863
v -6.170732 16.634983 -20.364037
v -6.170734 18.635027 -20.364004
v -4.617463 16.634983 -21.426586
v -4.617465 18.635027 -21.426554
v -2.886745 16.634983 -22.165691
v -2.886748 18.635027 -22.165659
v -1.045092 16.634983 -22.552950
v -1.045095 18.635029 -22.552917
v 0.836726 16.634983 -22.573479
v 0.836722 18.635029 -22.573446
v 2.686388 16.634983 -22.226488
v 2.686385 18.635029 -22.226456
v 4.432816 16.634983 -21.525314
v 4.432814 18.635029 -21.525280
v 6.008895 16.634983 -20.496902
v 6.008892 18.635029 -20.496868
v 7.354056 16.634983 -19.180771
v 7.354053 18.635029 -19.180738
v 8.416606 16.634983 -17.627502
v 8.416603 18.635029 -17.627470
v 9.155713 16.634983 -15.896787
v 9.155710 18.635027 -15.896754
v 9.542972 16.634983 -14.055132
v 9.542968 18.635027 -14.055100
v 9.563500 16.634983 -12.173316
v 9.563498 18.635027 -12.173285
v 9.216511 16.634983 -10.323652
v 9.216508 18.635027 -10.323621
v 8.515336 16.634983 -8.577225
v 8.515333 18.635027 -8.577192
v 7.486922 16.634983 -7.001146
v 7.486919 18.635029 -7.001115
v 6.170793 16.634983 -5.655985
v 6.170790 18.635029 -5.655952
v 4.617525 16.634983 -4.593434
v 4.617522 18.635029 -4.593403
v 2.886808 16.634983 -3.854328
v 2.886805 18.635029 -3.854295
v 1.045154 16.634983 -3.467069
v 1.045151 18.635029 -3.467038
v -0.836663 16.634983 -3.446541
v -0.836666 18.635029 -3.446509
v -2.686327 16.634983 -3.793532
v -2.686329 18.635029 -3.793499
v -4.432755 16.634983 -4.494706
v -4.432757 18.635029 -4.494674
v -6.008834 16.634983 -5.523118
v -6.008837 18.635029 -5.523087
v -7.353995 16.634983 -6.839248
v -7.353999 18.635029 -6.839216
v -8.416545 16.634981 -8.392518
v -8.416548 18.635027 -8.392486
v -9.155651 16.634981 -10.123234
v -9.155655 18.635027 -10.123201
v -9.542911 16.634981 -11.964888
v -9.542913 18.635027 -11.964855
v -9.563438 16.634981 -13.846704
v -9.563441 18.635027 -13.846672
v -9.216449 16.634983 -15.696368
v -9.216452 18.635027 -15.696336
v -8.515274 16.634983 -17.442797
v -8.515277 18.635027 -17.442762
v -7.486861 16.634983 -19.018873
v -7.486863 18.635027 -19.018841
vn -0.0000 -0.0000 -1.0000
vn 1.0000 -0.0000 -0.0000
vn -0.0000 -0.0000 1.0000
vn -1.0000 -0.0000 -0.0000
vn -0.0000 1.0000 -0.0000
vn -0.0000 -1.0000 -0.0000
vn 0.9952 -0.0000 0.0980
vn 0.9569 -0.0000 0.2903
vn 0.8819 -0.0000 0.4714
vn 0.7730 -0.0000 0.6344
vn 0.6344 -0.0000 0.7730
vn 0.4714 -0.0000 0.8819
vn 0.2903 -0.0000 0.9569
vn 0.0980 -0.0000 0.9952
vn -0.0980 -0.0000 0.9952
vn -0.2903 -0.0000 0.9569
vn -0.4714 -0.0000 0.8819
vn -0.6344 -0.0000 0.7730
vn -0.7730 -0.0000 0.6344
vn -0.8819 -0.0000 0.4714
vn -0.9569 -0.0000 0.2903
vn -0.9952 -0.0000 0.0980
vn -0.9952 -0.0000 -0.0980
vn -0.9569 -0.0000 -0.2903
vn -0.8819 -0.0000 -0.4714
vn -0.7730 -0.0000 -0.6344
vn -0.6344 -0.0000 -0.7730
vn -0.4714 -0.0000 -0.8819
vn -0.2903 -0.0000 -0.9569
vn -0.0980 -0.0000 -0.9952
vn 0.0980 -0.0000 -0.9952
vn 0.2903 -0.0000 -0.9569
vn 0.4714 -0.0000 -0.8819
vn 0.6344 -0.0000 -0.7730
vn 0.7730 -0.0000 -0.6344
vn 0.8819 -0.0000 -0.4714
vn 0.9569 -0.0000 -0.2903
vn 0.9952 -0.0000 -0.0980
vn -0.5646 -0.0000 -0.8254
vn -0.3927 -0.0000 -0.9196
vn -0.2058 -0.0000 -0.9786
vn -0.0109 -0.0000 -0.9999
vn 0.1844 -0.0000 -0.9829
vn 0.3726 -0.0000 -0.9280
vn 0.5465 -0.0000 -0.8375
vn 0.6994 -0.0000 -0.7148
vn 0.8254 -0.0000 -0.5646
vn 0.9196 -0.0000 -0.3927
vn 0.9786 -0.0000 -0.2058
vn 0.9999 -0.0000 -0.0109
vn 0.9829 -0.0000 0.1844
vn 0.9280 -0.0000 0.3726
vn 0.8375 -0.0000 0.5465
vn 0.7148 -0.0000 0.6994
vn 0.5646 -0.0000 0.8254
vn 0.3927 -0.0000 0.9196
vn 0.2058 -0.0000 0.9786
vn 0.0109 -0.0000 0.9999
vn -0.1844 -0.0000 0.9829
vn -0.3726 -0.0000 0.9280
vn -0.5465 -0.0000 0.8375
vn -0.6994 -0.0000 0.7148
vn -0.8254 -0.0000 0.5646
vn -0.9197 -0.0000 0.3927
vn -0.9786 -0.0000 0.2058
vn -0.9999 -0.0000 0.0109
vn -0.9829 -0.0000 -0.1844
vn -0.9280 -0.0000 -0.3726
vn -0.8375 -0.0000 -0.5465
vn -0.7148 -0.0000 -0.6994
vt 0.375000 0.000000
vt 0.625000 0.000000
vt 0.625000 0.250000
vt 0.375000 0.250000
vt 0.375000 0.341862
vt 0.625000 0.341862
vt 0.625000 0.500000
vt 0.375000 0.500000
vt 0.625000 0.750000
vt 0.375000 0.750000
vt 0.375000 0.908138
vt 0.625000 0.908138
vt 0.625000 1.000000
vt 0.375000 1.000000
vt 0.783138 0.500000
vt 0.875000 0.500000
vt 0.875000 0.750000
vt 0.783138 0.750000
vt 0.125000 0.500000
vt 0.216862 0.500000
vt 0.216862 0.750000
vt 0.125000 0.750000
vt 1.000000 0.500000
vt 1.000000 1.000000
vt 0.968750 1.000000
vt 0.968750 0.500000
vt 0.937500 1.000000
vt 0.937500 0.500000
vt 0.906250 1.000000
vt 0.906250 0.500000
vt 0.875000 1.000000
vt 0.843750 1.000000
vt 0.843750 0.500000
vt 0.812500 1.000000
vt 0.812500 0.500000
vt 0.781250 1.000000
vt 0.781250 0.500000
vt 0.750000 1.000000
vt 0.750000 0.500000
vt 0.718750 1.000000
vt 0.718750 0.500000
vt 0.687500 1.000000
vt 0.687500 0.500000
vt 0.656250 1.000000
vt 0.656250 0.500000
vt 0.593750 1.000000
vt 0.593750 0.500000
vt 0.562500 1.000000
vt 0.562500 0.500000
vt 0.531250 1.000000
vt 0.531250 0.500000
vt 0.500000 1.000000
vt 0.500000 0.500000
vt 0.468750 1.000000
vt 0.468750 0.500000
vt 0.437500 1.000000
vt 0.437500 0.500000
vt 0.406250 1.000000
vt 0.406250 0.500000
vt 0.343750 1.000000
vt 0.343750 0.500000
vt 0.312500 1.000000
vt 0.312500 0.500000
vt 0.281250 1.000000
vt 0.281250 0.500000
vt 0.250000 1.000000
vt 0.250000 0.500000
vt 0.218750 1.000000
vt 0.218750 0.500000
vt 0.187500 1.000000
vt 0.187500 0.500000
vt 0.156250 1.000000
vt 0.156250 0.500000
vt 0.125000 1.000000
vt 0.093750 1.000000
vt 0.093750 0.500000
vt 0.062500 1.000000
vt 0.062500 0.500000
vt 0.296822 0.485388
vt 0.250000 0.490000
vt 0.203178 0.485388
vt 0.158156 0.471731
vt 0.116663 0.449553
vt 0.080294 0.419706
vt 0.050447 0.383337
vt 0.028269 0.341844
vt 0.014612 0.296822
vt 0.010000 0.250000
vt 0.014612 0.203178
vt 0.028269 0.158156
vt 0.050447 0.116663
vt 0.080294 0.080294
vt 0.116663 0.050447
vt 0.158156 0.028269
vt 0.203178 0.014612
vt 0.250000 0.010000
vt 0.296822 0.014612
vt 0.341844 0.028269
vt 0.383337 0.050447
vt 0.419706 0.080294
vt 0.449553 0.116663
vt 0.471731 0.158156
vt 0.485388 0.203178
vt 0.490000 0.250000
vt 0.485388 0.296822
vt 0.471731 0.341844
vt 0.449553 0.383337
vt 0.419706 0.419706
vt 0.383337 0.449553
vt 0.341844 0.471731
vt 0.031250 1.000000
vt 0.031250 0.500000
vt 0.000000 1.000000
vt 0.000000 0.500000
vt 0.750000 0.490000
vt 0.796822 0.485388
vt 0.841844 0.471731
vt 0.883337 0.449553
vt 0.919706 0.419706
vt 0.949553 0.383337
vt 0.971731 0.341844
vt 0.985388 0.296822
vt 0.990000 0.250000
vt 0.985388 0.203178
vt 0.971731 0.158156
vt 0.949553 0.116663
vt 0.919706 0.080294
vt 0.883337 0.050447
vt 0.841844 0.028269
vt 0.796822 0.014612
vt 0.750000 0.010000
vt 0.703178 0.014612
vt 0.658156 0.028269
vt 0.616663 0.050447
vt 0.580294 0.080294
vt 0.550447 0.116663
vt 0.528269 0.158156
vt 0.514612 0.203178
vt 0.510000 0.250000
vt 0.514612 0.296822
vt 0.528269 0.341844
vt 0.550447 0.383337
vt 0.580294 0.419706
vt 0.616663 0.449553
vt 0.658156 0.471731
vt 0.703178 0.485388
s 0
f 1/1/1 2/2/1 4/3/1 3/4/1
f 9/5/2 10/6/2 8/7/2 7/8/2
f 7/8/3 8/7/3 6/9/3 5/10/3
f 11/11/4 12/12/4 2/13/4 1/14/4
f 9/5/2 7/8/2 18/8/2 20/5/2
f 10/15/5 4/16/5 2/17/5 12/18/5
f 8/7/2 10/6/2 13/6/2 14/7/2
f 3/19/6 9/20/6 11/21/6 1/22/6
f 5/10/4 6/9/4 12/12/4 11/11/4
f 3/4/2 4/3/2 10/6/2 9/5/2
f 15/9/5 14/7/5 22/7/5 23/9/5
f 10/15/1 12/18/1 16/18/1 13/15/1
f 6/9/3 8/7/3 14/7/3 15/9/3
f 12/12/4 6/9/4 15/9/4 16/12/4
f 19/21/6 20/20/6 32/20/6 31/21/6
f 5/10/4 11/11/4 19/11/4 17/10/4
f 11/21/1 9/20/1 20/20/1 19/21/1
f 7/8/3 5/10/3 17/10/3 18/8/3
f 24/12/4 23/9/4 27/9/4 28/12/4
f 16/12/5 15/9/5 23/9/5 24/12/5
f 14/7/5 13/6/5 21/6/5 22/7/5
f 13/15/5 16/18/5 24/18/5 21/15/5
f 26/7/5 25/15/5 28/18/5 27/9/5
f 22/7/2 21/6/2 25/6/2 26/7/2
f 21/15/1 24/18/1 28/18/1 25/15/1
f 23/9/3 22/7/3 26/7/3 27/9/3
f 29/10/4 31/11/4 35/11/4 33/10/4
f 17/10/6 19/11/6 31/11/6 29/10/6
f 20/5/6 18/8/6 30/8/6 32/5/6
f 18/8/6 17/10/6 29/10/6 30/8/6
f 36/20/6 34/8/6 33/10/6 35/21/6
f 32/5/2 30/8/2 34/8/2 36/5/2
f 30/8/3 29/10/3 33/10/3 34/8/3
f 31/21/1 32/20/1 36/20/1 35/21/1
f 37/23/7 38/24/7 40/25/7 39/26/7
f 39/26/8 40/25/8 42/27/8 41/28/8
f 41/28/9 42/27/9 44/29/9 43/30/9
f 43/30/10 44/29/10 46/31/10 45/16/10
f 45/16/11 46/31/11 48/32/11 47/33/11
f 47/33/12 48/32/12 50/34/12 49/35/12
f 49/35/13 50/34/13 52/36/13 51/37/13
f 51/37/14 52/36/14 54/38/14 53/39/14
f 53/39/15 54/38/15 56/40/15 55/41/15
f 55/41/16 56/40/16 58/42/16 57/43/16
f 57/43/17 58/42/17 60/44/17 59/45/17
f 59/45/18 60/44/18 62/13/18 61/7/18
f 61/7/19 62/13/19 64/46/19 63/47/19
f 63/47/20 64/46/20 66/48/20 65/49/20
f 65/49/21 66/48/21 68/50/21 67/51/21
f 67/51/22 68/50/22 70/52/22 69/53/22
f 69/53/23 70/52/23 72/54/23 71/55/23
f 71/55/24 72/54/24 74/56/24 73/57/24
f 73/57/25 74/56/25 76/58/25 75/59/25
f 75/59/26 76/58/26 78/14/26 77/8/26
f 77/8/27 78/14/27 80/60/27 79/61/27
f 79/61/28 80/60/28 82/62/28 81/63/28
f 81/63/29 82/62/29 84/64/29 83/65/29
f 83/65/30 84/64/30 86/66/30 85/67/30
f 85/67/31 86/66/31 88/68/31 87/69/31
f 87/69/32 88/68/32 90/70/32 89/71/32
f 89/71/33 90/70/33 92/72/33 91/73/33
f 91/73/34 92/72/34 94/74/34 93/19/34
f 93/19/35 94/74/35 96/75/35 95/76/35
f 95/76/36 96/75/36 98/77/36 97/78/36
f 40/79/5 38/80/5 100/81/5 98/82/5 96/83/5 94/84/5 92/85/5 90/86/5 88/87/5 86/88/5 84/89/5 82/90/5 80/91/5 78/92/5 76/93/5 74/94/5 72/95/5 70/96/5 68/97/5 66/98/5 64/99/5 62/100/5 60/101/5 58/102/5 56/103/5 54/104/5 52/105/5 50/106/5 48/107/5 46/108/5 44/109/5 42/110/5
f 97/78/37 98/77/37 100/111/37 99/112/37
f 99/112/38 100/111/38 38/113/38 37/114/38
f 37/115/6 39/116/6 41/117/6 43/118/6 45/119/6 47/120/6 49/121/6 51/122/6 53/123/6 55/124/6 57/125/6 59/126/6 61/127/6 63/128/6 65/129/6 67/130/6 69/131/6 71/132/6 73/133/6 75/134/6 77/135/6 79/136/6 81/137/6 83/138/6 85/139/6 87/140/6 89/141/6 91/142/6 93/143/6 95/144/6 97/145/6 99/146/6
f 101/23/39 102/24/39 104/25/39 103/26/39
f 103/26/40 104/25/40 106/27/40 105/28/40
f 105/28/41 106/27/41 108/29/41 107/30/41
f 107/30/42 108/29/42 110/31/42 109/16/42
f 109/16/43 110/31/43 112/32/43 111/33/43
f 111/33/44 112/32/44 114/34/44 113/35/44
f 113/35/45 114/34/45 116/36/45 115/37/45
f 115/37/46 116/36/46 118/38/46 117/39/46
f 117/39/47 118/38/47 120/40/47 119/41/47
f 119/41/48 120/40/48 122/42/48 121/43/48
f 121/43/49 122/42/49 124/44/49 123/45/49
f 123/45/50 124/44/50 126/13/50 125/7/50
f 125/7/51 126/13/51 128/46/51 127/47/51
f 127/47/52 128/46/52 130/48/52 129/49/52
f 129/49/53 130/48/53 132/50/53 131/51/53
f 131/51/54 132/50/54 134/52/54 133/53/54
f 133/53/55 134/52/55 136/54/55 135/55/55
f 135/55/56 136/54/56 138/56/56 137/57/56
f 137/57/57 138/56/57 140/58/57 139/59/57
f 139/59/58 140/58/58 142/14/58 141/8/58
f 141/8/59 142/14/59 144/60/59 143/61/59
f 143/61/60 144/60/60 146/62/60 145/63/60
f 145/63/61 146/62/61 148/64/61 147/65/61
f 147/65/62 148/64/62 150/66/62 149/67/62
f 149/67/63 150/66/63 152/68/63 151/69/63
f 151/69/64 152/68/64 154/70/64 153/71/64
f 153/71/65 154/70/65 156/72/65 155/73/65
f 155/73/66 156/72/66 158/74/66 157/19/66
f 157/19/67 158/74/67 160/75/67 159/76/67
f 159/76/68 160/75/68 162/77/68 161/78/68
f 104/79/5 102/80/5 164/81/5 162/82/5 160/83/5 158/84/5 156/85/5 154/86/5 152/87/5 150/88/5 148/89/5 146/90/5 144/91/5 142/92/5 140/93/5 138/94/5 136/95/5 134/96/5 132/97/5 130/98/5 128/99/5 126/100/5 124/101/5 122/102/5 120/103/5 118/104/5 116/105/5 114/106/5 112/107/5 110/108/5 108/109/5 106/110/5
f 161/78/69 162/77/69 164/111/69 163/112/69
f 163/112/70 164/111/70 102/113/70 101/114/70
f 101/115/6 103/116/6 105/117/6 107/118/6 109/119/6 111/120/6 113/121/6 115/122/6 117/123/6 119/124/6 121/125/6 123/126/6 125/127/6 127/128/6 129/129/6 131/130/6 133/131/6 135/132/6 137/133/6 139/134/6 141/135/6 143/136/6 145/137/6 147/138/6 149/139/6 151/140/6 153/141/6 155/142/6 157/143/6 159/144/6 161/145/6 163/146/6
