# Blender 3.6.4
# www.blender.org
o element_4_g.001
v -3.695411 28.999947 0.292389
v -3.695416 3.000014 -3.404195
v -6.695412 28.999947 0.292389
v -6.695415 3.000014 -3.404195
v -3.695410 28.999945 14.274952
v -3.695411 3.000010 14.274948
v -6.695410 28.999945 14.274951
v -6.695412 3.000013 14.274949
v 6.704607 28.999947 0.292382
v 6.704604 3.000013 -3.404204
v 3.704608 28.999947 0.292382
v 3.704603 3.000013 -3.404204
v 6.704609 28.999943 14.274943
v 6.704607 3.000009 14.274940
v 3.704609 28.999945 14.274943
v 3.704608 3.000012 14.274941
v 21.630009 -25.999998 0.574972
v 18.630001 -25.999998 0.574974
v 21.630009 -27.950901 0.382825
v 18.630001 -27.950901 0.382825
v 21.630009 -29.826832 -0.186234
v 18.630001 -29.826832 -0.186233
v 21.630007 -31.555696 -1.110333
v 18.630001 -31.555696 -1.110331
v 21.630005 -33.071064 -2.353961
v 18.629997 -33.071064 -2.353960
v 21.630005 -34.314693 -3.869326
v 18.629997 -34.314693 -3.869325
v 21.630005 -35.238789 -5.598195
v 18.629995 -35.238789 -5.598193
v 21.630001 -35.807850 -7.474124
v 18.629995 -35.807850 -7.474123
v 21.630001 -35.999996 -9.425028
v 18.629993 -35.999996 -9.425028
v 21.630001 -35.807850 -11.375930
v 18.629993 -35.807850 -11.375930
v 21.630001 -35.238789 -13.251861
v 18.629992 -35.238789 -13.251861
v 21.629999 -34.314693 -14.980728
v 18.629992 -34.314693 -14.980728
v 21.629999 -33.071064 -16.496092
v 18.629992 -33.071064 -16.496090
v 21.630001 -31.555698 -17.739717
v 18.629993 -31.555698 -17.739717
v 21.630001 -29.826828 -18.663818
v 18.629993 -29.826828 -18.663818
v 21.630001 -27.950897 -19.232878
v 18.629993 -27.950897 -19.232878
v 21.630001 -25.999994 -19.425024
v 18.629993 -25.999994 -19.425022
v 21.630024 -0.000017 20.175016
v 18.630013 -0.000017 20.175016
v 21.630003 -0.000012 -20.175024
v 18.629995 -0.000012 -20.175022
v 21.630020 2.999983 20.175016
v 18.635015 3.000001 20.175013
v 18.634996 3.000006 -20.175022
v 21.629999 2.999988 -20.175024
v -18.629997 -25.999994 0.574993
v -21.630007 -25.999994 0.574996
v -18.629997 -27.950895 0.382846
v -21.630007 -27.950895 0.382846
v -18.629997 -29.826828 -0.186212
v -21.630007 -29.826828 -0.186210
v -18.629997 -31.555696 -1.110312
v -21.630007 -31.555696 -1.110310
v -18.629999 -33.071060 -2.353940
v -21.630009 -33.071060 -2.353938
v -18.629999 -34.314690 -3.869305
v -21.630009 -34.314690 -3.869304
v -18.630003 -35.238789 -5.598173
v -21.630013 -35.238789 -5.598172
v -18.630003 -35.807846 -7.474104
v -21.630013 -35.807846 -7.474104
v -18.630003 -35.999992 -9.425010
v -21.630013 -35.999992 -9.425007
v -18.630003 -35.807846 -11.375912
v -21.630013 -35.807846 -11.375912
v -18.630007 -35.238789 -13.251842
v -21.630014 -35.238789 -13.251840
v -18.630007 -34.314690 -14.980710
v -21.630014 -34.314690 -14.980710
v -18.630007 -33.071060 -16.496078
v -21.630014 -33.071060 -16.496075
v -18.630005 -31.555695 -17.739704
v -21.630013 -31.555693 -17.739704
v -18.630005 -29.826824 -18.663805
v -21.630013 -29.826824 -18.663803
v -18.630005 -27.950891 -19.232861
v -21.630013 -27.950891 -19.232861
v -18.630005 -25.999990 -19.425007
v -21.630013 -25.999990 -19.425005
v -18.629993 -0.000012 20.175034
v -21.629995 -0.000012 20.175035
v -18.630009 -0.000007 -20.175005
v -21.630011 -0.000007 -20.175003
v -18.624989 3.000006 20.175034
v -21.629992 2.999989 20.175035
v -21.630009 2.999994 -20.175005
v -18.625004 3.000012 -20.175005
v -10.879998 0.000003 -13.675007
v -18.629999 0.000004 -13.675003
v -10.879987 -0.000001 10.824993
v -18.629988 -0.000000 10.824998
v -18.629999 -7.749996 -13.675004
v -18.629988 -7.750000 10.824997
v 14.454602 3.000031 10.390072
v 6.704603 3.000034 10.390084
v 14.454590 3.000035 1.890072
v 6.704590 3.000036 1.890083
v 6.704605 10.750033 10.390085
v 6.704592 10.750035 1.890085
v 10.890001 -0.000003 10.824976
v 18.640003 -0.000004 10.824980
v 10.889997 0.000001 -13.675023
v 18.639997 0.000001 -13.675021
v 18.640003 -7.750003 10.824979
v 18.639997 -7.749999 -13.675022
v -6.695402 10.750040 10.390084
v -6.695403 3.000039 10.390091
v -6.695407 10.750032 1.890085
v -6.695408 3.000033 1.890090
v -14.445404 3.000040 10.390096
v -14.445411 3.000033 1.890095
v 4.485450 10.750031 1.890079
v 4.485456 10.750039 10.390079
v 4.485454 3.000038 10.390085
v 4.485449 3.000032 1.890085
vn -0.0000 0.1408 -0.9900
vn -1.0000 -0.0000 -0.0000
vn -0.0000 -0.0000 1.0000
vn 1.0000 -0.0000 -0.0000
vn -0.0000 1.0000 -0.0000
vn -0.0000 -1.0000 -0.0000
vn -0.0000 -0.0980 0.9952
vn -0.0000 -0.2903 0.9569
vn -0.0000 -0.4714 0.8819
vn -0.0000 -0.6344 0.7730
vn -0.0000 -0.7730 0.6344
vn -0.0000 -0.8819 0.4714
vn -0.0000 -0.9569 0.2903
vn -0.0000 -0.9952 0.0980
vn -0.0000 -0.9952 -0.0980
vn -0.0000 -0.9569 -0.2903
vn -0.0000 -0.8819 -0.4714
vn -0.0000 -0.7730 -0.6344
vn -0.0000 -0.6344 -0.7730
vn -0.0000 -0.4714 -0.8819
vn -0.0000 -0.2903 -0.9569
vn -0.0000 -0.0980 -0.9952
vn -0.0000 -0.0288 -0.9996
vn -0.0000 -0.6020 0.7985
vn -0.0000 -0.0000 -1.0000
vn 0.7071 -0.7071 -0.0000
vn 0.7071 0.7071 -0.0000
vn -0.7071 -0.7071 -0.0000
vn -0.7071 0.7071 -0.0000
vt 0.375000 0.000000
vt 0.625000 0.000000
vt 0.625000 0.250000
vt 0.375000 0.250000
vt 0.625000 0.500000
vt 0.375000 0.500000
vt 0.625000 0.750000
vt 0.375000 0.750000
vt 0.625000 1.000000
vt 0.375000 1.000000
vt 0.125000 0.500000
vt 0.125000 0.750000
vt 0.875000 0.500000
vt 0.875000 0.750000
vt 1.000000 0.500000
vt 1.000000 1.000000
vt 0.968750 1.000000
vt 0.968750 0.500000
vt 0.937500 1.000000
vt 0.937500 0.500000
vt 0.906250 1.000000
vt 0.906250 0.500000
vt 0.875000 1.000000
vt 0.843750 1.000000
vt 0.843750 0.500000
vt 0.812500 1.000000
vt 0.812500 0.500000
vt 0.781250 1.000000
vt 0.781250 0.500000
vt 0.750000 1.000000
vt 0.750000 0.500000
vt 0.718750 1.000000
vt 0.718750 0.500000
vt 0.687500 1.000000
vt 0.687500 0.500000
vt 0.656250 1.000000
vt 0.656250 0.500000
vt 0.593750 1.000000
vt 0.593750 0.500000
vt 0.562500 1.000000
vt 0.562500 0.500000
vt 0.531250 1.000000
vt 0.531250 0.500000
vt 0.500000 1.000000
vt 0.500000 0.500000
s 0
f 1/1/1 2/2/1 4/3/1 3/4/1
f 3/4/2 4/3/2 8/5/2 7/6/2
f 7/6/3 8/5/3 6/7/3 5/8/3
f 5/8/4 6/7/4 2/9/4 1/10/4
f 3/11/5 7/6/5 5/8/5 1/12/5
f 8/5/6 4/13/6 2/14/6 6/7/6
f 9/1/1 10/2/1 12/3/1 11/4/1
f 11/4/2 12/3/2 16/5/2 15/6/2
f 15/6/3 16/5/3 14/7/3 13/8/3
f 13/8/4 14/7/4 10/9/4 9/10/4
f 11/11/5 15/6/5 13/8/5 9/12/5
f 16/5/6 12/13/6 10/14/6 14/7/6
f 17/15/7 18/16/7 20/17/7 19/18/7
f 19/18/8 20/17/8 22/19/8 21/20/8
f 21/20/9 22/19/9 24/21/9 23/22/9
f 23/22/10 24/21/10 26/23/10 25/13/10
f 25/13/11 26/23/11 28/24/11 27/25/11
f 27/25/12 28/24/12 30/26/12 29/27/12
f 29/27/13 30/26/13 32/28/13 31/29/13
f 31/29/14 32/28/14 34/30/14 33/31/14
f 33/31/15 34/30/15 36/32/15 35/33/15
f 35/33/16 36/32/16 38/34/16 37/35/16
f 37/35/17 38/34/17 40/36/17 39/37/17
f 39/37/18 40/36/18 42/9/18 41/5/18
f 41/5/19 42/9/19 44/38/19 43/39/19
f 43/39/20 44/38/20 46/40/20 45/41/20
f 45/41/21 46/40/21 48/42/21 47/43/21
f 47/43/22 48/42/22 50/44/22 49/45/22
f 20/17/2 18/16/2 50/44/2 48/42/2 46/40/2 44/38/2 42/9/2 40/36/2 38/34/2 36/32/2 34/30/2 32/28/2 30/26/2 28/24/2 26/23/2 24/21/2 22/19/2
f 17/15/4 19/18/4 21/20/4 23/22/4 25/13/4 27/25/4 29/27/4 31/29/4 33/31/4 35/33/4 37/35/4 39/37/4 41/5/4 43/39/4 45/41/4 47/43/4 49/45/4
f 50/44/2 18/16/2 52/16/2 54/44/2
f 57/44/5 100/45/5 97/15/5 56/16/5
f 17/15/4 49/45/4 53/45/4 51/15/4
f 49/45/23 50/44/23 54/44/23 53/45/23
f 18/16/24 17/15/24 51/15/24 52/16/24
f 55/15/5 58/45/5 57/44/5 56/16/5
f 52/16/3 51/15/3 55/15/3 56/16/3
f 51/15/4 53/45/4 58/45/4 55/15/4
f 53/45/25 54/44/25 57/44/25 58/45/25
f 59/15/7 60/16/7 62/17/7 61/18/7
f 61/18/8 62/17/8 64/19/8 63/20/8
f 63/20/9 64/19/9 66/21/9 65/22/9
f 65/22/10 66/21/10 68/23/10 67/13/10
f 67/13/11 68/23/11 70/24/11 69/25/11
f 69/25/12 70/24/12 72/26/12 71/27/12
f 71/27/13 72/26/13 74/28/13 73/29/13
f 73/29/14 74/28/14 76/30/14 75/31/14
f 75/31/15 76/30/15 78/32/15 77/33/15
f 77/33/16 78/32/16 80/34/16 79/35/16
f 79/35/17 80/34/17 82/36/17 81/37/17
f 81/37/18 82/36/18 84/9/18 83/5/18
f 83/5/19 84/9/19 86/38/19 85/39/19
f 85/39/20 86/38/20 88/40/20 87/41/20
f 87/41/21 88/40/21 90/42/21 89/43/21
f 89/43/22 90/42/22 92/44/22 91/45/22
f 62/17/2 60/16/2 92/44/2 90/42/2 88/40/2 86/38/2 84/9/2 82/36/2 80/34/2 78/32/2 76/30/2 74/28/2 72/26/2 70/24/2 68/23/2 66/21/2 64/19/2
f 59/15/4 61/18/4 63/20/4 65/22/4 67/13/4 69/25/4 71/27/4 73/29/4 75/31/4 77/33/4 79/35/4 81/37/4 83/5/4 85/39/4 87/41/4 89/43/4 91/45/4
f 92/44/2 60/16/2 94/16/2 96/44/2
f 96/44/2 94/16/2 98/16/2 99/44/2
f 59/15/4 91/45/4 95/45/4 93/15/4
f 91/45/23 92/44/23 96/44/23 95/45/23
f 60/16/24 59/15/24 93/15/24 94/16/24
f 97/15/5 100/45/5 99/44/5 98/16/5
f 94/16/3 93/15/3 97/15/3 98/16/3
f 95/45/25 96/44/25 99/44/25 100/45/25
f 56/16/3 97/15/3 93/15/3 52/16/3
f 54/44/6 52/16/6 93/15/6 95/45/6
f 57/44/25 54/44/25 95/45/25 100/45/25
f 101/1/5 102/2/5 104/3/5 103/4/5
f 103/4/3 104/13/3 106/5/3
f 101/1/26 103/4/26 106/5/26 105/7/26
f 102/14/25 101/1/25 105/7/25
f 106/5/2 104/13/2 102/14/2 105/7/2
f 107/1/6 108/2/6 110/3/6 109/4/6
f 109/4/25 110/13/25 112/5/25
f 107/1/27 109/4/27 112/5/27 111/7/27
f 108/14/3 107/1/3 111/7/3
f 112/5/2 110/13/2 108/14/2 111/7/2
f 113/1/5 114/2/5 116/3/5 115/4/5
f 115/4/25 116/13/25 118/5/25
f 113/1/28 115/4/28 118/5/28 117/7/28
f 114/14/3 113/1/3 117/7/3
f 118/5/4 116/13/4 114/14/4 117/7/4
f 121/4/25 122/13/25 124/5/25
f 119/1/29 121/4/29 124/5/29 123/7/29
f 120/14/3 119/1/3 123/7/3
f 124/5/6 122/13/6 120/14/6 123/7/6
f 126/1/4 127/2/4 128/3/4 125/4/4
